<?xml version="1.0" encoding="UTF-8"?>
<svg version="1.1" xmlns="http://www.w3.org/2000/svg" width="512" height="512">
<path d="M0 0 C3.77020856 -0.01770584 5.02844956 0.13514432 8.40972328 2.05921173 C9.27713048 2.92247165 10.14453768 3.78573156 11.03822994 4.67515087 C11.53357135 5.15333238 12.02891275 5.63151389 12.5392645 6.12418574 C14.17660064 7.71797546 15.77213594 9.34778224 17.37033749 10.98073864 C18.54210099 12.13758133 19.71618827 13.29207425 20.8924017 14.4443922 C24.06850084 17.57048372 27.20898136 20.73020591 30.34262538 23.89878583 C33.63196148 27.21604467 36.94813663 30.50629853 40.26006222 33.80097485 C45.81659959 39.33752062 51.34958949 44.89680731 56.86984921 50.46950817 C63.24515577 56.90467739 69.6591271 63.29925596 76.09462184 69.67419034 C81.62685239 75.15644232 87.13728146 80.65991725 92.63018209 86.18157595 C95.90745099 89.47596157 99.19162065 92.76254229 102.49563313 96.03012562 C105.60151357 99.10413892 108.6790795 102.20399326 111.73718548 105.32551479 C112.8612379 106.46406511 113.99466965 107.59344566 115.13809681 108.71253681 C116.70368197 110.24785281 118.23117123 111.81344252 119.75405025 113.39097118 C120.61731017 114.25837838 121.48057009 115.12578558 122.3699894 116.01947784 C124.6670282 120.05619552 124.49750067 122.77280143 124.30625254 127.33132643 C124.20358709 130.07494837 124.31177625 132.68908429 124.53345203 135.42339802 C128.79544853 189.84533291 125.01289438 243.25456667 88.7036376 286.33831644 C77.32149517 299.62898572 65.23147575 312.198729 52.83054256 324.53615856 C52.13036758 325.23366368 51.4301926 325.9311688 50.7088002 326.64981043 C32.60795181 344.65243782 13.98713153 362.07438674 -4.82846475 379.32465672 C-15.74636776 389.34398566 -26.51422434 399.50765568 -37.1963129 409.77785778 C-37.95730564 410.50942549 -38.71829838 411.2409932 -39.50235151 411.99472962 C-43.32241895 415.66854613 -47.14015839 419.3447712 -50.95675159 423.02219653 C-82.2204548 453.13997375 -113.86670956 482.82806515 -145.80226994 512.23147106 C-149.19475364 510.76209574 -151.40679871 508.87577963 -154.01139545 506.2684412 C-154.8484078 505.43541096 -155.68542014 504.60238071 -156.54779649 503.74410713 C-157.46219082 502.82388712 -158.37658514 501.9036671 -159.31868839 500.95556164 C-160.30341634 499.97170572 -161.28858363 498.98828936 -162.27415252 498.00527585 C-164.98320288 495.30070353 -167.68596748 492.58992439 -170.38776398 489.87810826 C-173.30162613 486.95562054 -176.22125409 484.03890318 -179.14019108 481.12148571 C-184.19734335 476.06538285 -189.25081676 471.00562691 -194.3018198 465.94338131 C-201.60475376 458.624203 -208.91319487 451.31054432 -216.22299799 443.99822713 C-228.08211303 432.13473332 -239.93675356 420.26677874 -251.78859806 408.39602184 C-263.30253265 396.86373318 -274.81856301 385.333544 -286.33742619 373.80617809 C-287.40220727 372.74060884 -287.40220727 372.74060884 -288.48849908 371.65351294 C-292.04959109 368.08981087 -295.61072444 364.5261501 -299.17187834 360.96250987 C-328.72175243 331.3918976 -358.2643728 301.81404673 -387.80226994 272.23147106 C-386.32428773 268.87347328 -384.42142047 266.50332218 -381.94131947 263.81157398 C-381.13025895 262.9274611 -380.31919843 262.04334821 -379.48356032 261.13244402 C-378.13876818 259.68179429 -378.13876818 259.68179429 -376.76680851 258.20183849 C-375.80693679 257.16089109 -374.84731783 256.11971058 -373.88793015 255.07831705 C-371.24515819 252.21330815 -368.59526325 249.35497856 -365.94325924 246.49851584 C-364.24599262 244.66984446 -362.55036954 242.83966111 -360.8550539 241.00918102 C-339.16498642 217.60033096 -317.14874006 194.50689222 -294.99476998 171.53721938 C-291.34515307 167.75293262 -287.69795781 163.96632026 -284.05226994 160.17824841 C-283.3268359 159.42456661 -282.60140187 158.67088481 -281.85398498 157.89436416 C-271.70321364 147.33775517 -261.70000485 136.65829573 -251.80359286 125.86308452 C-234.73916678 107.24899034 -217.430524 88.90374376 -199.59914494 71.02053356 C-198.9076146 70.3261212 -198.21608426 69.63170884 -197.50359845 68.91625369 C-149.87662482 21.20279563 -108.67030077 -0.7750924 -40.81918335 -1.33237267 C-29.98672326 -1.30872981 -19.21802908 -0.74539731 -8.42232782 0.10808474 C-5.59507609 0.24122844 -2.82701985 0.1186203 0 0 Z M-12.21326637 23.41329288 C-13.3898728 23.54213462 -13.3898728 23.54213462 -14.59024906 23.67357922 C-15.9548753 23.82069851 -15.9548753 23.82069851 -17.34706974 23.97078991 C-18.81774906 24.13439007 -18.81774906 24.13439007 -20.31813908 24.30129528 C-21.36436939 24.41512554 -22.41059971 24.5289558 -23.48853397 24.64623547 C-26.93856121 25.02268596 -30.3880154 25.40410336 -33.83742619 25.78615856 C-36.23825031 26.05049211 -38.63908357 26.31474264 -41.03992558 26.57891369 C-46.06782595 27.1330792 -51.09541076 27.69001752 -56.12282658 28.24856091 C-62.56715056 28.96404279 -69.01248688 29.66992267 -75.45813179 30.37339115 C-80.41458779 30.91586792 -85.37031409 31.4647928 -90.32585812 32.01553249 C-92.70226435 32.27858519 -95.07892978 32.53930704 -97.45585155 32.79765987 C-100.77662306 33.15930587 -104.09627247 33.52994817 -107.41579533 33.90285778 C-108.39827244 34.00787609 -109.38074955 34.1128944 -110.3929987 34.22109509 C-111.2999297 34.32481426 -112.20686069 34.42853344 -113.14127445 34.53539562 C-113.92530171 34.62204416 -114.70932898 34.7086927 -115.51711464 34.79796696 C-120.43794058 35.73146948 -123.53689461 37.59127264 -127.05635643 41.11641407 C-128.28873605 42.33983397 -128.28873605 42.33983397 -129.54601222 43.58796942 C-130.43803897 44.48873469 -131.33006571 45.38949996 -132.24912357 46.31756115 C-133.21387758 47.28100679 -134.17929065 48.24379286 -135.14530486 49.20597494 C-137.79735334 51.85131271 -140.43995227 54.50591821 -143.08111465 57.16211891 C-145.93111588 60.02506773 -148.78977362 62.87934968 -151.64739323 65.73469067 C-156.59703696 70.68276086 -161.54115543 75.63629701 -166.48157024 80.5935812 C-173.62459667 87.76098206 -180.77588634 94.92009098 -187.9292241 102.07719903 C-199.53462772 113.68916957 -211.13331515 125.30782471 -222.72780704 136.93068981 C-233.99122007 148.22163716 -245.25777763 159.50943138 -256.52858829 170.7929945 C-257.22324465 171.48843902 -257.917901 172.18388354 -258.63360754 172.90040214 C-262.11849135 176.38920105 -265.60343717 179.87793799 -269.08841383 183.36664414 C-298.00265363 212.31198734 -326.90600655 241.26818263 -355.80226994 270.23147106 C-354.40605896 273.38218909 -352.7715975 275.51119493 -350.33899593 277.94084072 C-349.61743435 278.6663844 -348.89587276 279.39192809 -348.15244567 280.13945794 C-347.35673601 280.92934192 -346.56102634 281.71922591 -345.74120426 282.53304577 C-344.89828363 283.37767525 -344.05536299 284.22230474 -343.1868993 285.09252906 C-340.84628537 287.43586972 -338.50126225 289.77463443 -336.15428281 292.11158943 C-333.6244343 294.63280738 -331.10036166 297.15979596 -328.57558537 299.68609142 C-324.20047109 304.06225479 -319.82170756 308.4347391 -315.44044971 312.8047514 C-309.10588003 319.12307246 -302.776835 325.44690375 -296.44912817 331.77209696 C-286.18289175 342.03395528 -275.91219621 352.29133858 -265.63869572 362.54592419 C-255.65848957 372.50777452 -245.6803845 382.47172162 -235.70510197 392.43850231 C-235.09030632 393.05277251 -234.47551068 393.6670427 -233.84208487 394.29992715 C-230.75787308 397.38152888 -227.67370259 400.46317194 -224.58955264 403.54483557 C-199.00019262 429.1134595 -173.40359534 454.67482811 -147.80226994 480.23147106 C-144.47070219 478.77808625 -142.26483662 476.95179699 -139.69243526 474.39845848 C-138.87755669 473.5943457 -138.06267812 472.79023291 -137.22310627 471.96175307 C-136.33342187 471.07374631 -135.44373747 470.18573954 -134.52709293 469.27082348 C-133.56851908 468.32099811 -132.60952652 467.37159513 -131.65015137 466.42257911 C-129.01332177 463.81159948 -126.38280926 461.194335 -123.75335193 458.57593381 C-120.91698988 455.75354804 -118.07501591 452.93682185 -115.23394108 450.11918163 C-108.3732167 443.31223914 -101.52245489 436.49531361 -94.67366904 429.67636201 C-92.73893656 427.75013824 -90.80398091 425.82413895 -88.86895704 423.8982079 C-76.85031377 411.93577203 -64.83540467 399.96959623 -52.83023739 387.99363518 C-50.04996759 385.22024446 -47.26965505 382.44689659 -44.48928165 379.67360973 C-43.45272765 378.63968735 -43.45272765 378.63968735 -42.39523317 377.58487765 C-31.20171152 366.4210129 -19.9860425 355.27967352 -8.76117884 344.14733174 C2.76529868 332.71508437 14.27089223 321.26214698 25.75658882 309.78892642 C32.20494589 303.34864141 38.66219276 296.91785222 45.1430769 290.51028538 C50.66281651 285.05290302 56.1634458 279.57713249 61.64017166 274.07657101 C64.43381825 271.27192407 67.23552687 268.47685893 70.06205654 265.70532131 C72.65336612 263.16401447 75.21763028 260.59826091 77.76335178 258.01131175 C79.11927488 256.64655704 80.50217473 255.30876586 81.8860532 253.97236651 C88.18293008 247.49556564 89.64859613 242.14108032 90.19773006 233.23147106 C90.40711893 231.46980369 90.62464025 229.70905187 90.85584164 227.95011425 C91.05146945 226.22137089 91.24428666 224.49230758 91.43454647 222.7629652 C91.5421278 221.80510113 91.64970913 220.84723705 91.7605505 219.86034679 C92.10955237 216.74607413 92.45460043 213.6313797 92.79929256 210.51662731 C93.04291309 208.3299607 93.28667986 206.14331038 93.53058529 203.95667553 C94.03830946 199.39897803 94.54401613 194.84106235 95.048316 190.28298473 C95.69426949 184.44641746 96.34570961 178.61047745 96.9986887 172.77469254 C97.50202425 168.27024054 98.00227148 163.76544963 98.50160503 159.26055241 C98.74062494 157.10788861 98.98064904 154.95533606 99.22170544 152.80289936 C99.5575412 149.8003459 99.88916376 146.79735575 100.21970272 143.7942152 C100.31941875 142.91048733 100.41913479 142.02675945 100.52187252 141.11625195 C100.6115379 140.29378979 100.70120327 139.47132763 100.79358578 138.62394238 C100.87210592 137.91629773 100.95062607 137.20865309 101.03152561 136.47956467 C101.11379682 135.36675833 101.11379682 135.36675833 101.19773006 134.23147106 C101.28744831 133.24797334 101.37716656 132.26447561 101.46960354 131.25117493 C101.12064965 127.37533745 99.97647067 126.25635064 97.25189877 123.52373791 C95.93967594 122.18613667 95.93967594 122.18613667 94.60094357 120.82151318 C93.61901959 119.8512545 92.6367856 118.88130949 91.65427303 117.91164684 C90.62828883 116.87753061 89.60358503 115.8421427 88.58006954 114.805583 C85.79824798 111.99640865 82.99777978 109.20654524 80.19276476 106.42055273 C77.25973979 103.50271795 74.34138205 100.57027285 71.42066097 97.64013195 C66.51334733 92.72190225 61.59351777 87.81645905 56.66648006 82.9179945 C50.97023579 77.25440381 45.29592985 71.5695209 39.63253772 65.87309372 C34.76962313 60.98295179 29.89511363 56.10459929 25.01072133 51.23590934 C22.09344071 48.32798323 19.18036628 45.41615464 16.2776823 42.49365139 C13.54803707 39.74667441 10.80413229 37.01478999 8.04852772 34.29386234 C7.03958956 33.29285822 6.03572339 32.286712 5.03738117 31.27513981 C3.6739641 29.89533054 2.29017409 28.535741 0.90546322 27.17730236 C-0.2476998 26.02753257 -0.2476998 26.02753257 -1.42415905 24.8545351 C-5.04716762 22.38182663 -8.01168441 23.09643663 -12.21326637 23.41329288 Z " fill="#000000" transform="translate(387.8022699356079,-0.23147106170654297)"/>
<path d="M0 0 C3.12068856 1.79273598 4.54965052 3.24259405 6.375 6.3125 C7.27762335 10.19378041 7.20592828 12.12833553 6 16 C-0.76235577 24.7649143 -9.27947469 32.42162941 -17.10107422 40.23046875 C-18.50658961 41.63734169 -19.91189273 43.04442673 -21.31700134 44.45170593 C-25.10554565 48.2447795 -28.89721026 52.03471907 -32.68961096 55.82393646 C-36.66551809 59.7973001 -40.63897159 63.77311624 -44.61282349 67.74853516 C-51.27686994 74.41439603 -57.94301155 81.07815618 -64.61035156 87.74072266 C-72.32121195 95.44612618 -80.02844224 103.1551466 -87.73382747 110.86602497 C-94.35806413 117.49479489 -100.98424151 124.12162011 -107.61205494 130.74681377 C-111.56736701 134.70056626 -115.52199883 138.65499277 -119.47488022 142.61117554 C-123.18430343 146.32348106 -126.89615221 150.0333439 -130.60991096 153.74131203 C-131.97375474 155.10383082 -133.33674321 156.46720637 -134.69882393 157.83148766 C-136.55390695 159.68929199 -138.41202443 161.54400656 -140.27096558 163.39794922 C-141.08325758 164.21358731 -141.08325758 164.21358731 -141.91195953 165.04570293 C-148.18605707 171.28698268 -148.18605707 171.28698268 -153.3125 171.4375 C-156.61899333 171.3458028 -158.79730128 170.94358722 -161.5 169 C-164.16169859 165.80596169 -164.81790468 164.15228809 -165.28515625 160.16015625 C-164.46069363 153.91456958 -160.23220533 149.80469843 -155.96484375 145.59735107 C-155.35186432 144.9811028 -154.73888489 144.36485453 -154.10733032 143.72993207 C-152.05778159 141.67311817 -149.99771579 139.62717959 -147.9375 137.58105469 C-146.46347405 136.10623766 -144.99010154 134.63076728 -143.51733398 133.1546936 C-139.52010074 129.15232938 -135.51360355 125.15935789 -131.50524902 121.16813564 C-127.31352966 116.99145541 -123.12991924 112.80666788 -118.9453125 108.62286377 C-111.91907202 101.6003148 -104.88722019 94.58342607 -97.8515625 87.5703125 C-88.81509488 78.56274084 -79.78793009 69.54590566 -70.76367188 60.52610397 C-63.01002476 52.77643407 -55.25212025 45.03103014 -47.49353027 37.28630924 C-44.99689652 34.79377662 -42.50085123 32.30065583 -40.00488281 29.80745697 C-36.08726457 25.89472705 -32.16700466 21.98466272 -28.24465942 18.0766716 C-26.8034294 16.63996904 -25.36304388 15.20241877 -23.92355347 13.76397324 C-21.96306081 11.80522307 -19.99953219 9.84956893 -18.03515625 7.89471436 C-17.46229889 7.32099051 -16.88944153 6.74726667 -16.29922485 6.15615726 C-10.89882699 0.79514875 -7.5479751 -1.07449206 0 0 Z " fill="#000000" transform="translate(328,178)"/>
<path d="M0 0 C9.67736073 6.97261744 15.45061251 15.83146778 18.25 27.3125 C19.83704767 40.84774938 17.75934095 52.63292708 9.5 63.75 C1.69742982 72.80156917 -9.34391598 78.47059742 -21.28125 79.5390625 C-34.73712541 79.9643919 -46.06839848 75.7350385 -56 66.6875 C-64.39390198 57.78384689 -68.34286469 45.85540103 -68 33.7265625 C-66.83391049 22.46651066 -62.70449318 12.44777712 -54.75 4.3125 C-38.33583936 -8.47900409 -18.14858034 -11.09938729 0 0 Z M-41.75 23.5 C-44.75262492 28.44360746 -46.23363845 33.94351855 -45.40625 39.70703125 C-43.476386 46.45006796 -39.72482468 51.37239695 -33.875 55.1875 C-26.32596746 57.90515171 -20.97033882 57.65986014 -13.75 54.3125 C-9.28106296 51.43251835 -5.75040131 47.57208573 -4.16015625 42.390625 C-2.92889148 36.15221684 -3.26175098 30.75547794 -6.41796875 25.16796875 C-10.05423867 20.10278337 -14.57945458 16.57179498 -20.75 15.3125 C-28.8161989 14.37144346 -36.53071247 17.00283381 -41.75 23.5 Z " fill="#000000" transform="translate(230.75,184.6875)"/>
<path d="M0 0 C9.83715216 7.77891725 15.48419345 17.77994767 17.3203125 30.19140625 C18.21722902 41.73920651 15.72706936 53.02719413 8.2890625 62.1015625 C0.27470926 70.83148299 -9.04688432 77.46924246 -21.18359375 78.24609375 C-34.02816677 78.5752137 -44.29465525 76.40523611 -54.4609375 68.0078125 C-59.72104855 62.9629729 -63.71863416 57.76925884 -66.4609375 51.0078125 C-67.04875 49.615625 -67.04875 49.615625 -67.6484375 48.1953125 C-70.85498737 35.6157707 -69.32873492 24.15664212 -63.1484375 12.76171875 C-56.9920812 2.71488729 -48.42958236 -4.02313273 -36.8984375 -6.9296875 C-23.48428578 -9.4764781 -11.4263586 -7.87002797 0 0 Z M-39.7734375 19.1953125 C-44.32249821 23.95595743 -46.65453408 28.35885832 -46.9609375 35.0078125 C-46.67828632 40.95260506 -44.89166862 45.41580065 -40.8125 49.765625 C-35.5318322 54.53897974 -30.95246376 56.51847437 -23.796875 56.31640625 C-17.13871427 55.43681645 -12.81861363 51.86640886 -8.6875 46.7890625 C-4.92955025 41.33165777 -4.73877865 36.52529612 -5.4609375 30.0078125 C-7.19387006 24.15916511 -10.35624293 20.37883721 -15.4609375 17.0078125 C-24.58294771 13.13408214 -31.41052819 13.67263654 -39.7734375 19.1953125 Z " fill="#000000" transform="translate(317.4609375,270.9921875)"/>
<path d="M0 0 C8.53679317 5.25889262 14.31349276 12.28258867 17 22 C18.2271016 32.66932547 16.44252065 41.88701935 10.078125 50.64453125 C3.91561798 57.62947812 -3.89077668 60.75889759 -13 62 C-22.41301925 62.55370701 -31.01600317 59.26687498 -38.171875 53.140625 C-44.70545599 46.16030343 -47.59283118 38.55881793 -48.1015625 29.0625 C-47.80187152 20.02566443 -44.66492788 13.17394564 -38.75 6.4375 C-28.00206214 -3.08908128 -13.3349654 -6.9007832 0 0 Z M-23 22 C-25.45665197 25.68497796 -25.70086491 28.71971786 -25 33 C-23.20636089 35.8100346 -21.98119065 37.50940468 -19 39 C-14.50203634 39.51899581 -12.50434107 39.31754808 -8.625 36.875 C-5.68724659 33.65746055 -4.91176507 32.32351136 -5 28 C-6.34588014 23.96235959 -7.37036128 22.3935242 -11 20.125 C-16.03141952 18.23821768 -18.47156583 19.39855909 -23 22 Z " fill="#000000" transform="translate(407,91)"/>
</svg>
