<?xml version="1.0" encoding="UTF-8"?>
<svg version="1.1" xmlns="http://www.w3.org/2000/svg" width="512" height="512">
<path d="M0 0 C1.49778613 -0.01059839 1.49778613 -0.01059839 3.02583057 -0.02141088 C4.12581054 -0.0189958 5.22579051 -0.01658071 6.3591032 -0.01409245 C7.52532906 -0.01932912 8.69155491 -0.0245658 9.89312094 -0.02996117 C13.13564752 -0.0423953 16.37804012 -0.04580397 19.62058604 -0.04536426 C23.11558849 -0.04701019 26.61055124 -0.06007251 30.10553265 -0.07155704 C37.75014157 -0.09442372 45.39472276 -0.10232944 53.03936124 -0.10738349 C57.81161269 -0.11063859 62.58385606 -0.11715993 67.35610294 -0.12438488 C80.56602532 -0.14395301 93.77594018 -0.16035596 106.98587799 -0.16326141 C108.25431111 -0.16354277 108.25431111 -0.16354277 109.54836915 -0.16382981 C111.26269511 -0.16419606 112.97702108 -0.16455976 114.69134704 -0.16492092 C115.54235523 -0.16510373 116.39336341 -0.16528654 117.27015972 -0.16547489 C118.12220518 -0.16565544 118.97425064 -0.16583599 119.85211565 -0.16602201 C133.66044204 -0.16956417 147.46861252 -0.19658814 161.27688483 -0.23397278 C175.44963268 -0.27203751 189.62230314 -0.29141876 203.79510325 -0.29172093 C211.75425673 -0.29230591 219.71322424 -0.30082435 227.6723299 -0.32971859 C234.44934044 -0.35420804 241.22609721 -0.36153202 248.00314001 -0.34647106 C251.46121992 -0.33929196 254.91879848 -0.34020151 258.37682247 -0.36288166 C262.12567076 -0.38321279 265.87321242 -0.37286441 269.62204266 -0.35466862 C270.71533046 -0.36786858 271.80861827 -0.38106855 272.935036 -0.39466852 C281.14506988 -0.30338879 281.14506988 -0.30338879 284.84098625 2.61098289 C287.85621399 6.02438689 288.30688173 8.33755976 288.29457378 12.73149776 C288.29449825 13.63220501 288.29442272 14.53291225 288.2943449 15.46091366 C288.28918362 16.42974987 288.28402233 17.39858608 288.27870464 18.39678097 C288.27658222 19.88864674 288.27658222 19.88864674 288.27441692 21.41065121 C288.268816 24.58965204 288.25626335 27.76858264 288.24354839 30.94756222 C288.23853351 33.10185808 288.23397058 35.25615504 288.22987652 37.41045284 C288.21884627 42.69367996 288.20210726 47.97686607 288.18104839 53.26006222 C289.35043453 53.25006947 289.35043453 53.25006947 290.54344463 53.23987484 C297.92781516 53.17950362 305.31206425 53.13395664 312.69661808 53.1046257 C316.49215469 53.08903891 320.2874856 53.06793034 324.08290386 53.03374386 C327.75283202 53.00089849 331.42256361 52.98315681 335.09262753 52.97543049 C336.48551936 52.96993174 337.87840172 52.95919536 339.27120876 52.94287205 C349.05791004 52.83284481 358.95407268 52.98493054 366.93104839 59.38506222 C367.94425152 60.16236691 367.94425152 60.16236691 368.97792339 60.95537472 C375.8329831 68.12644782 379.10784469 76.56378685 382.35801983 85.7556982 C383.20630175 88.14365161 384.07706445 90.52242086 384.95277691 92.90044308 C388.22704669 101.83329249 391.38180918 110.80054333 394.40289021 119.82214737 C396.23477368 125.28731537 398.10769425 130.7375136 400.00341129 136.1808567 C401.183826 139.5789256 402.34021131 142.98166307 403.44545269 146.4049902 C407.38039085 161.68118439 407.38039085 161.68118439 417.00404644 172.98686886 C420.63984244 174.42548323 424.31276821 174.77537123 428.18104839 175.26006222 C440.52250348 181.3413992 449.9772867 191.35553623 455.35475445 204.02544308 C458.60251739 213.64098628 458.76764897 222.61145496 458.71229839 232.63506222 C458.7149995 234.37570569 458.71888704 236.11634768 458.72389507 237.85698605 C458.72974855 241.47765849 458.72135429 245.09793262 458.70253277 248.71855831 C458.67960798 253.35335662 458.6929771 257.98723508 458.71682262 262.62200069 C458.73127712 266.20457049 458.72667862 269.78692188 458.71631145 273.36949825 C458.71365027 275.0790941 458.71689249 276.78871001 458.72622967 278.49828243 C458.73640512 280.88165158 458.72088845 283.26352329 458.69862652 285.64678097 C458.70672344 286.34708935 458.71482037 287.04739773 458.72316265 287.76892757 C458.64112209 292.51713496 457.53034239 294.92034154 454.18104839 298.26006222 C450.96201754 299.86957764 447.43266008 299.5024097 443.89198589 299.57646847 C443.07356213 299.59724957 442.25513836 299.61803066 441.41191387 299.63944149 C438.79337873 299.70491033 436.17474201 299.76380948 433.55604839 299.82256222 C431.78260032 299.86574998 430.00916258 299.90936435 428.23573589 299.95342159 C423.88427793 300.06058898 419.53271763 300.16186391 415.18104839 300.26006222 C414.93000347 301.05960323 414.67895855 301.85914425 414.42030621 302.68291378 C409.73929135 317.22009 402.24845309 328.32229254 388.77089214 335.94365597 C375.45573346 342.71169288 360.63687529 344.82350091 346.11854839 340.57256222 C331.56246342 335.31923832 319.60593606 325.75486992 312.89979839 311.54521847 C311.36000081 307.80021078 310.16473712 304.19481713 309.18104839 300.26006222 C259.68104839 300.26006222 210.18104839 300.26006222 159.18104839 300.26006222 C157.20104839 306.20006222 157.20104839 306.20006222 155.18104839 312.26006222 C148.11957675 326.45025762 137.00916897 334.8166497 122.50526714 340.49834347 C108.33394273 345.1427271 92.55822991 342.62766375 79.49354839 336.07256222 C66.73392944 328.3933787 57.32739033 316.60037019 53.63563824 302.12090206 C53.48562359 301.50682491 53.33560894 300.89274776 53.18104839 300.26006222 C52.45299496 300.2586372 51.72494152 300.25721218 50.97482586 300.25574398 C44.10366295 300.23789263 37.23301001 300.1962161 30.36217499 300.12797165 C26.82995252 300.09372306 23.29816154 300.06859518 19.76576519 300.06450558 C15.70185001 300.0593969 11.63922578 300.01427045 7.57557964 299.96709347 C5.67845982 299.97299244 5.67845982 299.97299244 3.74301434 299.97901058 C-6.02648383 299.81649736 -6.02648383 299.81649736 -9.09360981 296.90337276 C-11.93523407 292.54986125 -11.95794401 288.8748693 -11.932477 283.85112667 C-11.93262302 283.09966366 -11.93276905 282.34820065 -11.9329195 281.57396603 C-11.9322229 279.0903958 -11.92444228 276.60690059 -11.91660786 274.12334347 C-11.91474278 272.40127255 -11.9133193 270.67920111 -11.91232014 268.95712948 C-11.90850201 264.42466931 -11.89867771 259.89224118 -11.88761616 255.35979366 C-11.87738691 250.73475738 -11.87281927 246.10971592 -11.86777973 241.48467159 C-11.85705483 232.40978772 -11.83998684 223.33492763 -11.81895161 214.26006222 C-12.78534565 214.28761593 -13.75173969 214.31516964 -14.7474184 214.34355831 C-16.64487812 214.37570431 -16.64487812 214.37570431 -18.58067036 214.40849972 C-20.46338642 214.44983028 -20.46338642 214.44983028 -22.38413715 214.49199581 C-25.75469985 214.26440078 -27.10449704 214.01755588 -29.63145161 211.88506222 C-32.62824155 208.28891429 -33.2128169 206.09932357 -33.17832661 201.36553097 C-32.54313347 197.64412769 -30.47916144 195.85693373 -27.81895161 193.26006222 C-23.03936539 190.87026911 -17.16269145 192.26006222 -11.81895161 192.26006222 C-11.81895161 178.40006222 -11.81895161 164.54006222 -11.81895161 150.26006222 C-19.82182403 150.41785539 -19.82182403 150.41785539 -27.82359028 150.62041378 C-29.32756367 150.63539913 -29.32756367 150.63539913 -30.86192036 150.65068722 C-31.88309956 150.67163448 -32.90427876 150.69258175 -33.95640278 150.71416378 C-37.56530715 150.14166381 -39.19535329 148.7448136 -41.81895161 146.26006222 C-44.10749155 142.99071944 -44.29057378 140.19024702 -43.81895161 136.26006222 C-41.77901252 132.60224041 -40.31475899 130.59060047 -36.81895161 128.26006222 C-34.18345356 128.03301144 -34.18345356 128.03301144 -31.05723286 128.06474972 C-30.04958881 128.06974483 -29.04194477 128.07473995 -28.00376606 128.07988644 C-26.72590229 128.09809444 -25.44803852 128.11630245 -24.13145161 128.13506222 C-18.03676411 128.19693722 -18.03676411 128.19693722 -11.81895161 128.26006222 C-11.81895161 114.40006222 -11.81895161 100.54006222 -11.81895161 86.26006222 C-23.06763415 86.41795502 -23.06763415 86.41795502 -34.31553364 86.62041378 C-35.73593151 86.6321069 -37.15634288 86.64229725 -38.57676411 86.65068722 C-39.3017812 86.67115108 -40.02679829 86.69161495 -40.77378559 86.71269894 C-45.9406301 86.71621739 -48.84918827 85.53357609 -52.81895161 82.26006222 C-54.67621776 78.5455299 -54.4039625 74.30426796 -53.81895161 70.26006222 C-51.62872243 67.43581933 -49.98877954 65.84497618 -46.81895161 64.26006222 C-44.19268028 64.17338967 -41.59332678 64.14446086 -38.96738911 64.16240597 C-38.19335743 64.16382092 -37.41932575 64.16523586 -36.62183857 64.16669369 C-34.14583719 64.17229818 -31.66992573 64.18485139 -29.19395161 64.19756222 C-27.51686958 64.20257664 -25.83978613 64.20713965 -24.16270161 64.21123409 C-20.04808355 64.22226907 -15.93353283 64.23953668 -11.81895161 64.26006222 C-11.82783405 63.57181362 -11.8367165 62.88356503 -11.84586811 62.17446041 C-11.93443456 55.00434845 -11.99472499 47.83439216 -12.03867817 40.66387081 C-12.05651986 37.98842846 -12.08606209 35.31384206 -12.12070942 32.63848019 C-12.16928667 28.7908765 -12.19193526 24.94385435 -12.20957661 21.09599972 C-12.23022175 19.90203579 -12.25086689 18.70807186 -12.27213764 17.47792721 C-12.27384979 11.12681688 -12.24195628 7.00955053 -7.81895161 2.26006222 C-4.58619176 0.10488899 -3.72606715 0.00840953 0 0 Z M10.18104839 22.26006222 C10.18104839 36.12006222 10.18104839 49.98006222 10.18104839 64.26006222 C15.18325542 64.29873409 15.18325542 64.29873409 20.28651714 64.33818722 C23.52008245 64.37661135 26.75348851 64.42177055 29.9869566 64.46758175 C32.23232183 64.49578863 34.4777863 64.51700454 36.72328472 64.53105831 C39.95321228 64.55249114 43.18194695 64.59914493 46.41151714 64.65068722 C47.41377834 64.65191586 48.41603954 64.65314449 49.44867229 64.65441036 C53.8620338 64.74693178 56.47178877 64.82729175 60.30116558 67.16387081 C62.94511097 70.1120416 63.1509666 72.15862619 63.39198589 76.00224972 C63.06087239 79.54639057 61.47845442 81.63445533 59.18104839 84.26006222 C56.80721854 85.44697714 55.28925947 85.41579089 52.63954449 85.46538448 C51.69872021 85.4853297 50.75789593 85.50527493 49.78856182 85.52582455 C48.77081676 85.54253704 47.75307171 85.55924953 46.70448589 85.57646847 C45.66410168 85.59724957 44.62371746 85.61803066 43.55180645 85.63944149 C40.2199559 85.70496094 36.88802489 85.76383314 33.55604839 85.82256222 C31.30083165 85.86574515 29.04562313 85.90935937 26.79042339 85.95342159 C21.25404642 86.0614584 15.71761063 86.16051424 10.18104839 86.26006222 C10.18104839 100.12006222 10.18104839 113.98006222 10.18104839 128.26006222 C21.80324158 128.43038557 21.80324158 128.43038557 33.42592144 128.55791378 C34.88990177 128.58729607 36.35385411 128.61812411 37.81776714 128.65068722 C38.569492 128.65181515 39.32121685 128.65294308 40.09572124 128.65410519 C45.06444695 128.78895063 47.69584651 129.69435238 51.18104839 133.26006222 C52.78191466 136.46179476 52.68021929 139.78583281 52.18104839 143.26006222 C50.38740928 146.07009682 49.16223904 147.76946689 46.18104839 149.26006222 C43.48471135 149.41681733 40.80955844 149.5185009 38.11073589 149.57646847 C37.40505474 149.59511959 36.69937359 149.61377071 35.97230816 149.63298702 C33.33368348 149.70133711 30.69485068 149.76145239 28.05604839 149.82256222 C22.15729839 149.96693722 16.25854839 150.11131222 10.18104839 150.26006222 C10.18104839 164.12006222 10.18104839 177.98006222 10.18104839 192.26006222 C15.13104839 192.59006222 20.08104839 192.92006222 25.18104839 193.26006222 C31.05284327 199.13185709 31.05284327 199.13185709 31.49354839 203.01006222 C31.10325812 207.06908106 29.68517462 209.09307905 27.18104839 212.26006222 C22.0776726 214.81175011 15.87415865 213.88052153 10.18104839 214.26006222 C10.18104839 235.05006222 10.18104839 255.84006222 10.18104839 277.26006222 C24.37104839 277.26006222 38.56104839 277.26006222 53.18104839 277.26006222 C54.83104839 273.30006222 56.48104839 269.34006222 58.18104839 265.26006222 C65.96957097 251.43146091 75.57310844 241.87023665 91.18104839 237.26006222 C106.65364942 233.95692267 121.84212946 235.09069584 135.52870464 243.74443722 C147.73371346 252.59592025 153.69314269 263.54029795 159.18104839 277.26006222 C194.49104839 277.26006222 229.80104839 277.26006222 266.18104839 277.26006222 C266.18104839 256.47006222 266.18104839 235.68006222 266.18104839 214.26006222 C260.2698106 214.25071651 254.35857281 214.24137081 248.2682066 214.23174191 C228.77021696 214.19802361 209.27233326 214.14270562 189.77442932 214.07615948 C177.94911054 214.03633016 166.12385868 214.00395744 154.29848003 213.98906612 C143.99289345 213.97606979 133.68745388 213.9491568 123.38195008 213.90544915 C117.92395643 213.88278895 112.46614442 213.86715427 107.00809956 213.86817837 C101.87232087 213.86892228 96.73694439 213.85107957 91.60126972 213.81889439 C89.71508397 213.81036573 87.82885326 213.80866548 85.94265652 213.81425953 C83.36904461 213.82087643 80.79672108 213.80303517 78.22323895 213.77904415 C77.10114646 213.79068478 77.10114646 213.79068478 75.95638543 213.80256057 C71.0943392 213.72221028 68.59198276 212.72514552 65.18104839 209.26006222 C63.58018212 206.05832968 63.6818775 202.73429163 64.18104839 199.26006222 C65.9746875 196.45002761 67.19985775 194.75065754 70.18104839 193.26006222 C72.75008527 193.15234368 75.29273829 193.10516502 77.8624754 193.10184383 C78.66456051 193.09690586 79.46664562 193.09196788 80.29303634 193.08688027 C82.99545096 193.071455 85.69784172 193.06313108 88.40028667 193.05473995 C90.33159376 193.04516538 92.26289873 193.03515555 94.19420147 193.02474117 C99.45010028 192.99764047 104.70600811 192.97665892 109.96193838 192.95673919 C115.44993941 192.93491143 120.93791245 192.90750707 126.42589092 192.88068295 C136.82393702 192.83071255 147.22199862 192.78578988 157.62007511 192.74266058 C171.66692027 192.68410695 185.71372864 192.61779679 199.76054096 192.5519104 C221.90068534 192.44826774 244.04086114 192.35502378 266.18104839 192.26006222 C266.18104839 136.16006222 266.18104839 80.06006222 266.18104839 22.26006222 C181.70104839 22.26006222 97.22104839 22.26006222 10.18104839 22.26006222 Z M288.18104839 75.26006222 C288.18104839 141.92006222 288.18104839 208.58006222 288.18104839 277.26006222 C295.11104839 277.26006222 302.04104839 277.26006222 309.18104839 277.26006222 C310.23292339 274.59943722 310.23292339 274.59943722 311.30604839 271.88506222 C317.50926556 257.00085559 325.96478814 246.25746463 340.86854839 239.38506222 C354.8632822 234.04425178 369.58582879 234.10054109 383.55604839 239.51006222 C400.37685115 247.1253391 408.57587006 260.74711639 415.18104839 277.26006222 C422.11104839 277.26006222 429.04104839 277.26006222 436.18104839 277.26006222 C436.27184275 269.74019441 436.34504667 262.22053436 436.38829708 254.70024967 C436.40906767 251.20728275 436.43718845 247.71471408 436.48280621 244.22197628 C436.53505785 240.19557283 436.55408037 236.16957995 436.57167339 232.14287472 C436.59231853 230.90393459 436.61296368 229.66499447 436.63423443 228.3885107 C436.63705447 217.36994208 434.0874588 209.31106481 426.47401714 201.24053097 C419.23467306 194.98780958 411.52718112 193.11352725 402.1991148 193.10234737 C400.82062107 193.0947263 400.82062107 193.0947263 399.41427898 193.08695126 C397.41721966 193.0762462 395.42014832 193.06762655 393.42307186 193.06083202 C390.26252997 193.04904986 387.10212513 193.02959905 383.94163799 193.00771236 C374.95508153 192.94607053 365.96853921 192.89202984 356.98182964 192.85869503 C351.48639206 192.83776054 345.99120451 192.80246755 340.49590969 192.75793743 C338.4011749 192.74376817 336.30639588 192.73505291 334.21161556 192.73188305 C331.28140086 192.72697935 328.35185088 192.70383525 325.42177105 192.67656612 C324.12332508 192.68107533 324.12332508 192.68107533 322.79864788 192.68567562 C318.1436085 192.62127929 314.89281088 192.38538714 311.18104839 189.26006222 C309.36758239 186.29355121 308.92622907 184.05644166 308.90257549 180.60301876 C308.89141201 179.67196316 308.88024853 178.74090755 308.86874676 177.78163815 C308.86658657 176.76743801 308.86442638 175.75323788 308.86220074 174.70830441 C308.85215511 173.63482754 308.84210949 172.56135067 308.83175945 171.4553442 C308.80085998 167.90588067 308.78387331 164.3564928 308.76698589 160.80693722 C308.74827971 158.34642031 308.72870672 155.88590985 308.70830059 153.42540646 C308.65691543 146.94817052 308.61732376 140.47091377 308.58015728 133.99358273 C308.54015772 127.38443991 308.48904691 120.77538415 308.43886089 114.16631222 C308.34202596 101.19762332 308.25764532 88.22888533 308.18104839 75.26006222 C301.58104839 75.26006222 294.98104839 75.26006222 288.18104839 75.26006222 Z M330.18104839 75.26006222 C330.18104839 106.94006222 330.18104839 138.62006222 330.18104839 171.26006222 C349.32104839 171.26006222 368.46104839 171.26006222 388.18104839 171.26006222 C387.50552388 167.88243965 386.85658391 165.07160871 385.7291441 161.88921261 C385.43355099 161.04993725 385.13795788 160.21066189 384.8334074 159.34595394 C384.51113674 158.44233624 384.18886608 157.53871853 383.85682964 156.60771847 C383.51864712 155.65128948 383.18046459 154.6948605 382.83203411 153.70944881 C381.72345865 150.57895774 380.60921181 147.45053382 379.49354839 144.32256222 C379.11444317 143.25848141 378.73533794 142.1944006 378.34474468 141.09807491 C376.39260925 135.62127907 374.43565297 130.14623479 372.47450542 124.67265987 C370.66679572 119.62516123 368.87453902 114.5723783 367.08795452 109.51737118 C365.84106068 106.0000425 364.58059003 102.48770713 363.31566143 98.97682858 C362.72908789 97.34115308 362.14782608 95.70356235 361.57207012 94.06404781 C360.77412775 91.79566372 359.95680016 89.53521522 359.13417339 87.27568722 C358.90769619 86.61747478 358.68121899 85.95926235 358.44787884 85.28110409 C356.85446877 80.99274568 355.04284242 78.70473807 351.18104839 76.26006222 C344.38235571 74.56038905 337.18898041 75.26006222 330.18104839 75.26006222 Z M80.64589214 270.05693722 C74.63309408 277.98050784 74.10087576 286.55797109 75.18104839 296.26006222 C78.00727401 305.51245863 83.73418974 312.57981955 92.13807964 317.37724972 C100.56961646 321.23481558 109.05393221 321.15550697 117.72792339 318.29521847 C126.36331478 314.65130331 131.30036501 307.96517841 136.05604839 300.19756222 C138.78800232 293.0813948 138.44814693 283.33557584 135.61854839 276.32256222 C130.92143939 267.57110649 124.25866792 262.16074426 115.43104839 257.94756222 C101.22517388 254.94247338 89.97175411 259.14117003 80.64589214 270.05693722 Z M336.64589214 270.05693722 C330.63309408 277.98050784 330.10087576 286.55797109 331.18104839 296.26006222 C334.00727401 305.51245863 339.73418974 312.57981955 348.13807964 317.37724972 C356.56961646 321.23481558 365.05393221 321.15550697 373.72792339 318.29521847 C382.36331478 314.65130331 387.30036501 307.96517841 392.05604839 300.19756222 C394.78800232 293.0813948 394.44814693 283.33557584 391.61854839 276.32256222 C386.92143939 267.57110649 380.25866792 262.16074426 371.43104839 257.94756222 C357.22517388 254.94247338 345.97175411 259.14117003 336.64589214 270.05693722 Z " fill="#000000" transform="translate(53.81895160675049,84.7399377822876)"/>
<path d="M0 0 C4.15462356 3.22195296 5.78718908 5.45712081 6.5 10.625 C6.40652838 15.34106833 4.45080762 17.63344052 1.25 20.9375 C-2.10740519 24.01512142 -5.61194151 26.88030273 -9.17578125 29.71484375 C-11.87135726 31.89591147 -14.44124376 34.16091441 -17 36.5 C-21.29991791 40.41891252 -25.75919547 44.09170869 -30.28125 47.75 C-32.92147729 49.93501569 -35.4672972 52.19171391 -38 54.5 C-42.29857479 58.41768842 -46.75609805 62.08967142 -51.27734375 65.74609375 C-53.94137353 67.95146704 -56.50788442 70.2317631 -59.0625 72.5625 C-60.70703903 74.04310555 -62.35287158 75.52227561 -64 77 C-64.8353125 77.76183594 -65.670625 78.52367187 -66.53125 79.30859375 C-71.12377038 83.28452575 -74.67805255 85.84591361 -80.796875 86.453125 C-87.21157013 85.13379054 -92.08819647 79.2044751 -96.515625 74.75 C-97.21266541 74.05487305 -97.90970581 73.35974609 -98.62786865 72.64355469 C-100.09258733 71.18019128 -101.55480633 69.71432204 -103.01464844 68.24609375 C-105.24974344 66.0002578 -107.49534779 63.76532915 -109.7421875 61.53125 C-111.16730865 60.10480777 -112.59180956 58.67774554 -114.015625 57.25 C-114.68644104 56.58323242 -115.35725708 55.91646484 -116.04840088 55.22949219 C-116.66954773 54.60204102 -117.29069458 53.97458984 -117.93066406 53.328125 C-118.74957123 52.50683105 -118.74957123 52.50683105 -119.58502197 51.66894531 C-121.66589972 49.21458129 -122.9269984 47.0463562 -123.15234375 43.81640625 C-122.75740838 39.67317515 -122.31985206 37.43865426 -119.8125 34 C-116.59597598 31.71269403 -114.94270734 31 -111 31 C-105.57973694 32.88079187 -102.04726688 35.39398533 -98.06640625 39.54296875 C-97.5436058 40.07142899 -97.02080536 40.59988922 -96.48216248 41.1443634 C-94.83255028 42.81616928 -93.19748501 44.5013991 -91.5625 46.1875 C-90.43908779 47.33099917 -89.314747 48.47358686 -88.18945312 49.61523438 C-85.44879117 52.39973743 -82.7210769 55.19636037 -80 58 C-77.26637247 56.73063053 -75.07719578 55.37591334 -72.8203125 53.3828125 C-72.22855225 52.86452881 -71.63679199 52.34624512 -71.02709961 51.81225586 C-70.39940674 51.25546143 -69.77171387 50.69866699 -69.125 50.125 C-67.77506829 48.94103136 -66.42480033 47.75744601 -65.07421875 46.57421875 C-64.39278809 45.97528809 -63.71135742 45.37635742 -63.00927734 44.75927734 C-60.00508256 42.12887302 -56.97290065 39.5317638 -53.9375 36.9375 C-52.77992476 35.94664164 -51.62237269 34.95575621 -50.46484375 33.96484375 C-49.60802002 33.23177002 -49.60802002 33.23177002 -48.73388672 32.48388672 C-46.405124 30.49089604 -44.07793767 28.49607024 -41.75097656 26.50097656 C-40.58784065 25.50391025 -39.42443109 24.50716306 -38.26074219 23.51074219 C-35.27639338 20.95488093 -32.29665304 18.39393106 -29.32421875 15.82421875 C-26.40803819 13.30350528 -23.47297653 10.80615296 -20.53076172 8.31591797 C-19.15540882 7.13359705 -17.81177253 5.91461757 -16.47265625 4.69140625 C-11.31965393 0.19045344 -6.87255184 -1.75112141 0 0 Z " fill="#000000" transform="translate(261,160)"/>
<path d="M0 0 C3.6578218 2.03993908 5.66946174 3.50419262 8 7 C8.48384204 11.91906075 8.51355236 14.05848735 6.125 18.4375 C3.89845684 21.1224491 3.17341724 21.85462087 -0.20703125 22.2734375 C-7.29132231 22.54958678 -7.29132231 22.54958678 -11.0625 19.625 C-14.11858295 15.48450052 -14.71424812 12.09757903 -14 7 C-10.50204098 1.25335305 -6.69562884 -0.80347546 0 0 Z " fill="#000000" transform="translate(419,362)"/>
<path d="M0 0 C3.6578218 2.03993908 5.66946174 3.50419262 8 7 C8.48384204 11.91906075 8.51355236 14.05848735 6.125 18.4375 C3.89845684 21.1224491 3.17341724 21.85462087 -0.20703125 22.2734375 C-7.29132231 22.54958678 -7.29132231 22.54958678 -11.0625 19.625 C-14.11858295 15.48450052 -14.71424812 12.09757903 -14 7 C-10.50204098 1.25335305 -6.69562884 -0.80347546 0 0 Z " fill="#000000" transform="translate(163,362)"/>
</svg>
