<?xml version="1.0" encoding="UTF-8"?>
<svg version="1.1" xmlns="http://www.w3.org/2000/svg" width="512" height="512">
<path d="M0 0 C10.2164171 8.74809694 16.3226728 18.84795374 19.26953125 31.9609375 C20.34672585 49.46093503 17.05566062 62.84615099 6.26953125 76.9609375 C7.15125 77.2290625 8.03296875 77.4971875 8.94140625 77.7734375 C23.33079943 82.90768108 32.8005378 94.41739504 40.45703125 107.0546875 C42.11533419 109.95727494 42.11533419 109.95727494 44.26953125 111.9609375 C46.24953125 110.9709375 48.22953125 109.9809375 50.26953125 108.9609375 C49.810625 108.28289062 49.35171875 107.60484375 48.87890625 106.90625 C39.76909981 93.08843435 35.19741096 78.6160181 38.453125 62.05078125 C41.8888407 49.04766584 49.0401348 37.6541086 60.26953125 29.9609375 C74.75775152 22.08967103 90.20388308 18.96178738 106.33203125 23.6484375 C120.46730777 28.74989068 131.36404002 37.40707439 138.26953125 50.9609375 C144.46526915 65.20357889 144.66467592 79.79637294 139.01953125 94.2734375 C136.7436283 99.38912384 133.90407472 103.71439186 130.26953125 107.9609375 C132.57953125 109.2809375 134.88953125 110.6009375 137.26953125 111.9609375 C137.64722656 111.23390625 138.02492188 110.506875 138.4140625 109.7578125 C146.2432379 95.45627429 157.25011764 83.85269075 172.26953125 76.9609375 C172.92953125 76.9609375 173.58953125 76.9609375 174.26953125 76.9609375 C173.82222656 76.37828125 173.37492187 75.795625 172.9140625 75.1953125 C162.94298743 61.67376933 159.9870475 48.49351437 161.26953125 31.9609375 C163.48882671 19.35373499 170.28781647 7.99044616 180.26953125 -0.0390625 C193.368988 -8.93309256 206.75379131 -12.91126388 222.5859375 -10.54296875 C236.34226907 -7.668269 248.83920003 -0.95450105 256.96484375 10.84375 C265.25460876 24.2960034 268.24238097 37.92355141 265.14453125 53.5234375 C262.93654334 62.25074517 258.40411155 69.65403476 253.26953125 76.9609375 C254.14609375 77.21230469 255.02265625 77.46367187 255.92578125 77.72265625 C261.41609911 79.75586976 265.65857281 83.42310002 270.26953125 86.9609375 C271.30078125 87.7034375 272.33203125 88.4459375 273.39453125 89.2109375 C283.6614513 99.03146973 290.53842959 111.09047251 293.26953125 124.9609375 C294.56503906 124.99832031 295.86054688 125.03570312 297.1953125 125.07421875 C306.45462939 125.39513826 315.60439733 125.93378516 324.76953125 127.3359375 C325.55110596 127.44977783 326.33268066 127.56361816 327.13793945 127.6809082 C331.43052871 128.38684252 334.71100361 129.29204177 338.26953125 131.9609375 C339.79941913 135.02071326 339.41752742 138.2199017 339.41670227 141.57748413 C339.42037896 142.37266343 339.42405565 143.16784272 339.42784375 143.98711836 C339.43890559 146.66638612 339.44272862 149.34561514 339.4465332 152.02490234 C339.45279587 153.93986638 339.45944249 155.85482918 339.46644592 157.76979065 C339.48387172 162.98258023 339.49441157 168.19536063 339.50265145 173.40817213 C339.50779729 176.66225946 339.51387315 179.91634392 339.52016258 183.17042923 C339.53921738 193.34404433 339.55344901 203.51765215 339.56177455 213.69128168 C339.57155497 225.44967192 339.59789432 237.20787431 339.63827544 248.96619833 C339.66839084 258.04563319 339.68323899 267.12501407 339.68655556 276.20449793 C339.68891091 281.63173091 339.69793437 287.05876327 339.72301674 292.48594284 C339.74622306 297.58966417 339.75056077 302.69305173 339.74025536 307.79681206 C339.7397581 309.67216156 339.74613414 311.54752708 339.7598114 313.42282677 C339.77741527 315.97909692 339.77048173 318.53415418 339.75727844 321.09042358 C339.77373231 322.20900255 339.77373231 322.20900255 339.79051858 323.35017908 C339.747762 326.76832131 339.50571763 328.64281529 337.44301128 331.42109871 C334.30055319 333.64742644 331.91190901 333.46910379 328.0859375 333.47851562 C327.37001434 333.4855249 326.65409119 333.49253418 325.91647339 333.49975586 C323.55459582 333.51733298 321.19392058 333.50571525 318.83203125 333.4921875 C317.18823009 333.49488252 315.54443048 333.49876503 313.90063477 333.50378418 C310.45736497 333.5096788 307.01451054 333.50111778 303.57128906 333.48242188 C299.15919432 333.45963192 294.74807283 333.47275525 290.33601379 333.49671173 C286.94218624 333.51117093 283.54858916 333.50656326 280.15475464 333.49620056 C278.52806483 333.49353359 276.90135404 333.49680203 275.27468872 333.50611877 C273.00027097 333.51628692 270.72742571 333.50078227 268.453125 333.47851562 C267.15947021 333.47533325 265.86581543 333.47215088 264.53295898 333.46887207 C260.72351297 332.87595276 259.57799636 331.98153672 257.26953125 328.9609375 C256.22265625 326.6015625 256.22265625 326.6015625 255.51953125 324.2109375 C255.2771875 323.41171875 255.03484375 322.6125 254.78515625 321.7890625 C254.52992188 320.88414062 254.52992188 320.88414062 254.26953125 319.9609375 C248.87379909 321.31337426 244.30259888 323.30951465 239.39453125 325.8984375 C233.78429248 328.78918958 228.35953958 331.22093512 222.26953125 332.9609375 C222.56472656 333.66863281 222.85992187 334.37632812 223.1640625 335.10546875 C227.07197078 345.19974775 228.69464979 354.32914379 224.64453125 364.5859375 C220.90351515 372.14813433 215.81598268 377.535482 208.10546875 381.05859375 C202.94738615 382.69980185 195.3056878 384.47901577 190.26953125 381.9609375 C190.18316406 382.59 190.09679687 383.2190625 190.0078125 383.8671875 C188.48595095 393.13797715 184.85359217 399.43206603 177.56640625 405.41796875 C170.47180408 410.18390048 162.72658773 411.92340102 154.26953125 410.9609375 C153.27953125 410.6309375 152.28953125 410.3009375 151.26953125 409.9609375 C150.96015625 411.91 150.96015625 411.91 150.64453125 413.8984375 C148.82775954 421.92251257 144.22303292 428.11067921 137.46875 432.7421875 C128.56835519 437.67455549 119.85310973 438.05131663 110.20703125 435.4609375 C108.55779611 434.97227524 106.91062761 434.47627243 105.26953125 433.9609375 C105.15480469 434.71375 105.04007812 435.4665625 104.921875 436.2421875 C103.69712094 441.34655172 100.30203312 444.44793704 96.17578125 447.51953125 C88.90331758 451.79816404 81.51340807 452.03041341 73.26953125 450.9609375 C63.22254094 448.18935397 56.65031675 439.88829165 50.09057617 432.26879883 C46.43021412 428.08316035 42.5683635 424.14782222 38.61328125 420.2421875 C37.90731812 419.54001099 37.20135498 418.83783447 36.47399902 418.11437988 C34.24161767 415.89409147 32.00601014 413.67709795 29.76953125 411.4609375 C26.81862747 408.53684271 23.87119922 405.60930693 20.92578125 402.6796875 C20.26203491 402.0242395 19.59828857 401.3687915 18.91442871 400.69348145 C15.79297273 397.58819779 12.77950931 394.44454753 9.90673828 391.10693359 C5.63107512 386.1552893 1.03122702 381.5416483 -3.58203125 376.90625 C-4.04481853 376.44063534 -4.50760582 375.97502068 -4.98441696 375.49529648 C-7.43468446 373.03015086 -9.88772647 370.56780825 -12.34326172 368.10791016 C-14.34535034 366.10144237 -16.34257758 364.09032909 -18.33544922 362.07470703 C-36.89845549 343.24702347 -36.89845549 343.24702347 -58.48046875 328.0859375 C-59.1031665 327.71863525 -59.72586426 327.35133301 -60.36743164 326.97290039 C-65.02776971 324.2646946 -69.73620305 321.97616752 -74.73046875 319.9609375 C-74.8284375 320.56421875 -74.92640625 321.1675 -75.02734375 321.7890625 C-75.176875 322.58828125 -75.32640625 323.3875 -75.48046875 324.2109375 C-75.6196875 324.99984375 -75.75890625 325.78875 -75.90234375 326.6015625 C-76.98446121 329.68457639 -78.15552072 330.93630299 -80.73046875 332.9609375 C-83.99389648 333.46887207 -83.99389648 333.46887207 -87.9140625 333.47851562 C-88.62998566 333.4855249 -89.34590881 333.49253418 -90.08352661 333.49975586 C-92.44540418 333.51733298 -94.80607942 333.50571525 -97.16796875 333.4921875 C-98.81176991 333.49488252 -100.45556952 333.49876503 -102.09936523 333.50378418 C-105.54263503 333.5096788 -108.98548946 333.50111778 -112.42871094 333.48242188 C-116.84080568 333.45963192 -121.25192717 333.47275525 -125.66398621 333.49671173 C-129.05781376 333.51117093 -132.45141084 333.50656326 -135.84524536 333.49620056 C-137.47193517 333.49353359 -139.09864596 333.49680203 -140.72531128 333.50611877 C-142.99972903 333.51628692 -145.27257429 333.50078227 -147.546875 333.47851562 C-148.84052979 333.47533325 -150.13418457 333.47215088 -151.46704102 333.46887207 C-155.43693163 332.85098044 -156.35526161 332.15756599 -158.73046875 328.9609375 C-159.12127701 326.20778633 -159.26717677 323.85520961 -159.23167419 321.10388184 C-159.23997579 319.90854962 -159.23997579 319.90854962 -159.24844509 318.68906927 C-159.26207112 316.01570401 -159.24707219 313.3432692 -159.23217773 310.66992188 C-159.23596021 308.75466006 -159.24145965 306.83940098 -159.24855042 304.92414856 C-159.26253163 299.71962142 -159.25131649 294.51542388 -159.2348392 289.31091499 C-159.22100653 283.86885431 -159.22744674 278.42681312 -159.23097229 272.98474121 C-159.23367582 263.84507932 -159.22018647 254.70554864 -159.19702148 245.56591797 C-159.17041089 234.99353933 -159.16866414 224.42138012 -159.18040985 213.84897947 C-159.19118252 203.68601894 -159.18500457 193.52313793 -159.17085457 183.36018372 C-159.16509034 179.03170394 -159.16518089 174.70328227 -159.16991997 170.37480164 C-159.17468614 165.27926427 -159.16460291 160.18396772 -159.14296532 155.08847618 C-159.13739238 153.21636963 -159.13693678 151.34423995 -159.14191818 149.47213173 C-159.14785714 146.92048339 -159.13539293 144.36957478 -159.1181488 141.81799316 C-159.12415885 141.07363809 -159.13016889 140.32928302 -159.13636106 139.56237173 C-159.09789449 136.44145484 -158.90858029 134.27903157 -157.36981297 131.53090668 C-148.87386307 123.39449497 -124.00617503 124.79088625 -112.73046875 124.9609375 C-112.54484375 123.7646875 -112.35921875 122.5684375 -112.16796875 121.3359375 C-107.95968079 102.84849314 -94.97595575 89.46108481 -79.484375 79.51953125 C-75.19627885 76.9609375 -75.19627885 76.9609375 -72.73046875 76.9609375 C-73.189375 76.27128906 -73.64828125 75.58164063 -74.12109375 74.87109375 C-82.99643129 61.27840244 -87.81198752 48.42958834 -85.265625 31.953125 C-81.97876224 17.05527366 -74.32102625 5.01076679 -61.58203125 -3.46875 C-41.64420156 -14.44821238 -18.4081765 -13.74687859 0 0 Z M-62.10546875 18.5234375 C-67.37989975 25.61295609 -70.61716506 34.72506684 -70.109375 43.65234375 C-68.30335765 54.65601645 -63.59485782 63.19481042 -54.98046875 70.2734375 C-45.96805618 76.47162928 -36.54288794 78.21382501 -25.73046875 76.9609375 C-15.82566944 74.34809677 -6.5341974 68.30700406 -1.2109375 59.42578125 C3.43069224 50.34316859 5.01399741 41.25779024 2.5859375 31.1015625 C-0.93353952 21.69681894 -7.04731345 14.07248198 -15.73046875 8.9609375 C-32.52087351 1.90771914 -49.71866838 4.39330967 -62.10546875 18.5234375 Z M183.95703125 19.7734375 C177.80143961 28.74105428 176.10626529 37.12419672 177.26953125 47.9609375 C179.17178991 57.59820822 184.69501191 64.59963437 192.3515625 70.58984375 C194.27731408 71.86228316 196.2019955 72.9375697 198.26953125 73.9609375 C199.15318359 74.43660156 199.15318359 74.43660156 200.0546875 74.921875 C208.08097524 78.63680224 217.91195923 78.07249482 226.14453125 75.3359375 C235.76510269 71.2873979 243.25368501 64.63316369 247.59375 55.03125 C251.65559793 43.82910098 250.99297029 34.95560916 246.26953125 23.9609375 C240.38303 14.08680638 231.73145489 8.29646351 220.69140625 5.43359375 C206.39153981 2.64281337 192.97899776 8.66429963 183.95703125 19.7734375 Z M61.26953125 50.9609375 C55.47037307 58.95504587 52.84184074 67.76321922 53.4296875 77.65625 C55.08347724 87.90011264 60.11025425 96.56736791 68.26953125 102.9609375 C77.21474132 108.54991613 86.89331181 111.58981406 97.3828125 109.2734375 C108.11248554 106.30328579 115.84810665 101.13672951 122.26953125 91.9609375 C127.47208153 82.20221439 128.424939 72.55200516 125.26953125 61.9609375 C121.32675096 52.1972282 115.08891901 44.95917528 105.45703125 40.5234375 C89.64376932 34.10019996 72.44950622 38.00987739 61.26953125 50.9609375 Z M-83.79296875 103.3359375 C-88.45899625 108.10419408 -96.73046875 118.80006466 -96.73046875 125.9609375 C-96.13435791 126.02039551 -95.53824707 126.07985352 -94.92407227 126.14111328 C-69.41811144 128.77790276 -41.58211983 133.53407702 -18.73046875 145.9609375 C-16.70825788 150.00535925 -17.38690822 153.79973292 -18.625 157.984375 C-19.34752752 160.09323623 -20.09024201 162.19531711 -20.85546875 164.2890625 C-21.88607955 166.96752259 -21.88607955 166.96752259 -21.73046875 169.9609375 C-18.6085817 170.78571552 -15.4824976 171.5933939 -12.35546875 172.3984375 C-11.48535156 172.62853516 -10.61523438 172.85863281 -9.71875 173.09570312 C-3.73267673 174.62547741 2.10727686 175.52385701 8.26953125 175.9609375 C8.32898926 175.4033374 8.38844727 174.8457373 8.44970703 174.27124023 C10.50980593 155.80433162 14.4164659 140.74764492 27.26953125 126.6484375 C29.54391552 124.20838586 29.54391552 124.20838586 29.0859375 121.65625 C24.92312286 107.91298636 14.43887514 98.64904798 2.26953125 91.9609375 C0.98949219 91.23583984 0.98949219 91.23583984 -0.31640625 90.49609375 C-6.91832236 87.39339144 -11.67199031 88.32458758 -18.3984375 90.31567383 C-29.90151355 93.62794349 -40.96126504 92.92996366 -52.19140625 88.8359375 C-62.81662873 85.17432237 -76.38532895 96.60479448 -83.79296875 103.3359375 Z M167.26953125 98.9609375 C161.84710585 103.26982911 158.19068124 108.29797034 154.70703125 114.2109375 C154.34778564 114.81365479 153.98854004 115.41637207 153.6184082 116.03735352 C152.2790153 118.43689012 151.2520931 120.32153881 151.328125 123.109375 C152.55165909 125.51582794 154.10582552 127.31242098 155.89453125 129.3359375 C164.09061331 139.35337113 168.2390251 150.57539062 171.26953125 162.9609375 C181.47888993 165.62643509 190.70792605 167.13282619 201.26953125 166.9609375 C200.95903399 165.52300358 200.64605365 164.0856057 200.33203125 162.6484375 C200.15800781 161.84792969 199.98398437 161.04742187 199.8046875 160.22265625 C199.27066966 157.8155365 199.27066966 157.8155365 198.26953125 154.9609375 C197.81471542 148.59351586 197.81471542 148.59351586 199.37890625 146.41796875 C218.80070775 131.45034073 253.78284786 127.94781602 277.26953125 125.9609375 C271.60542669 110.00148994 262.16500243 98.93028026 246.97900391 91.38452148 C242.13712543 89.11081366 237.80705371 87.26443134 232.4375 88.73828125 C230.96216797 89.31255859 230.96216797 89.31255859 229.45703125 89.8984375 C218.71965232 93.43256908 207.30251956 93.25365817 196.56640625 89.71484375 C185.57588628 86.10741118 176.0476279 92.47103372 167.26953125 98.9609375 Z M34.18359375 141.62109375 C28.20212678 150.39138815 24.04689842 161.04453818 24.20703125 171.7734375 C24.21605469 172.56363281 24.22507813 173.35382813 24.234375 174.16796875 C24.24597656 174.75964844 24.25757813 175.35132813 24.26953125 175.9609375 C37.21772682 176.96337845 54.6252668 176.33511207 65.15625 168.09912109 C66.82057403 166.65835574 68.46133634 165.195531 70.09375 163.71875 C82.56186976 152.44155729 100.90412686 148.89877947 117.24609375 149.5 C129.5467067 150.36226079 141.54187977 154.37675287 153.26953125 157.9609375 C151.02203135 146.19475652 143.04654696 135.74225175 133.26953125 128.9609375 C123.6102121 122.69741482 123.6102121 122.69741482 112.64453125 120.7734375 C111.1744945 121.12331189 109.71670194 121.5260615 108.26953125 121.9609375 C105.91831527 122.49493325 103.56383437 123.0146673 101.20703125 123.5234375 C99.99917969 123.78511719 98.79132813 124.04679688 97.546875 124.31640625 C90.91987154 125.6196906 85.94062293 124.95518148 79.33203125 123.5234375 C78.11386719 123.26046875 76.89570313 122.9975 75.640625 122.7265625 C73.72384439 122.29123342 71.8121253 121.82348663 69.9296875 121.2578125 C56.93410499 118.16481397 41.4307165 132.37897654 34.18359375 141.62109375 Z M-142.73046875 143.9609375 C-142.73046875 201.0509375 -142.73046875 258.1409375 -142.73046875 316.9609375 C-125.24046875 316.9609375 -107.75046875 316.9609375 -89.73046875 316.9609375 C-87.39984375 310.0928125 -85.06921875 303.2246875 -82.66796875 296.1484375 C-76.72599864 278.67187613 -70.71057103 261.22309507 -64.61157227 243.80078125 C-58.40746513 226.07285656 -52.28221008 208.31787593 -46.1628418 190.56054688 C-45.77503036 189.43625275 -45.38721893 188.31195862 -44.98765564 187.15359497 C-44.2389231 184.9823097 -43.49121997 182.81066914 -42.74464417 180.63864136 C-41.21383282 176.19607651 -39.67244441 171.76140774 -38.03222656 167.35791016 C-37.78779816 166.69805618 -37.54336975 166.03820221 -37.29153442 165.35835266 C-36.67447994 163.7067706 -36.04518114 162.05977622 -35.41455078 160.41333008 C-34.45467131 157.85583253 -34.45467131 157.85583253 -35.73046875 154.9609375 C-37.88983647 153.85658273 -37.88983647 153.85658273 -40.59375 153.05859375 C-42.12684814 152.56190186 -42.12684814 152.56190186 -43.69091797 152.05517578 C-44.79709473 151.71470215 -45.90327148 151.37422852 -47.04296875 151.0234375 C-48.17492676 150.67007324 -49.30688477 150.31670898 -50.47314453 149.95263672 C-77.82362648 141.61787447 -114.7856057 134.64598315 -142.73046875 143.9609375 Z M225.89453125 151.5859375 C224.46693481 152.01942505 224.46693481 152.01942505 223.01049805 152.46166992 C222.13949463 152.74244385 221.26849121 153.02321777 220.37109375 153.3125 C219.60104004 153.55822754 218.83098633 153.80395508 218.03759766 154.05712891 C215.90489955 154.88686577 215.90489955 154.88686577 215.26953125 157.9609375 C215.72772518 160.14569301 215.72772518 160.14569301 216.61450195 162.52514648 C216.93759338 163.4603009 217.26068481 164.39545532 217.59356689 165.35894775 C217.95714294 166.38131531 218.32071899 167.40368286 218.6953125 168.45703125 C219.06928162 169.53152527 219.44325073 170.60601929 219.82855225 171.71307373 C221.07135473 175.27784245 222.32677794 178.838036 223.58203125 182.3984375 C224.45527175 184.89656776 225.32757387 187.39502623 226.19897461 189.89379883 C227.77369218 194.40764949 229.35142255 198.92042443 230.93322849 203.43179607 C234.73294381 214.26900912 238.48649241 225.12204517 242.23599243 235.97671509 C244.06624759 241.27311628 245.90045284 246.56814891 247.734375 251.86328125 C248.47511688 254.00243475 249.21583931 256.14159498 249.95654297 258.28076172 C250.33172058 259.36427917 250.70689819 260.44779663 251.09344482 261.56414795 C254.86117761 272.4461674 258.62769069 283.32860918 262.39453125 294.2109375 C264.99328125 301.7184375 267.59203125 309.2259375 270.26953125 316.9609375 C287.75953125 316.9609375 305.24953125 316.9609375 323.26953125 316.9609375 C323.26953125 259.8709375 323.26953125 202.7809375 323.26953125 143.9609375 C290.34489776 137.3760108 257.70757313 141.75660682 225.89453125 151.5859375 Z M68.26953125 185.9609375 C66.52686538 187.53161312 64.77727088 189.09464934 63.01953125 190.6484375 C59.27229104 194.00658727 55.70854451 197.49704928 52.1796875 201.08203125 C50.37308629 202.85907661 48.51255969 204.50809288 46.58203125 206.1484375 C42.73834454 209.47146546 39.08260731 212.96608869 35.45703125 216.5234375 C34.89346924 217.06572998 34.32990723 217.60802246 33.74926758 218.16674805 C28.12046291 223.74817363 25.44409647 229.23044366 25.14927673 237.21968079 C25.15149734 238.45212021 25.15371796 239.68455963 25.15600586 240.9543457 C25.15585983 241.63782578 25.15571381 242.32130585 25.15556335 243.02549744 C25.15625663 245.27093751 25.16402151 247.51629327 25.171875 249.76171875 C25.17374126 251.32398941 25.17516418 252.88626065 25.17616272 254.4485321 C25.17997153 258.55023834 25.18978779 262.65190889 25.2008667 266.75360107 C25.21111605 270.94315101 25.21566788 275.13270675 25.22070312 279.32226562 C25.23141158 287.53517259 25.24846828 295.7480506 25.26953125 303.9609375 C26.86955616 303.81689724 28.46917271 303.66831615 30.06860352 303.51782227 C30.9594313 303.435569 31.85025909 303.35331573 32.76808167 303.26856995 C43.67229071 301.92755211 54.90026237 294.53042521 61.70703125 286.0859375 C66.54303231 278.85284082 68.43072605 271.95629184 69.26953125 263.3984375 C69.90513794 256.91932726 70.85923621 251.62606577 74.26953125 245.9609375 C74.70265625 245.21714844 75.13578125 244.47335937 75.58203125 243.70703125 C79.112058 238.03788503 83.3205218 233.42227084 88.26953125 228.9609375 C89.0171875 228.28289062 89.76484375 227.60484375 90.53515625 226.90625 C93.94808153 224.01571124 96.45047498 222.16210921 100.83203125 221.0859375 C108.78472469 223.11025947 115.05687048 231.61495169 120.70166016 237.3112793 C121.50273697 238.11542267 122.30381378 238.91956604 123.12916565 239.74807739 C124.85495351 241.48097709 126.57961188 243.21500226 128.30324173 244.95004845 C131.03317279 247.6974729 133.76672181 250.44124983 136.50131226 253.18403625 C144.27111651 260.97821013 152.03523144 268.77803277 159.79492188 276.58227539 C164.55236785 281.36694835 169.31511408 286.14629367 174.0806694 290.92289162 C175.89183349 292.74025705 177.7010987 294.55951696 179.50841141 296.38071251 C182.03311797 298.92465085 184.56393948 301.46235473 187.09619141 303.9987793 C187.83816269 304.74951218 188.58013397 305.50024506 189.34458923 306.27372742 C195.96540384 312.88211916 201.65294074 317.24771966 211.20703125 318.4609375 C224.05142702 318.0964054 237.30748288 308.99878544 248.26953125 302.9609375 C246.75557153 295.25509302 244.36659639 288.00440902 241.7890625 280.59375 C241.33877437 279.28787232 240.88890974 277.98184855 240.43943787 276.6756897 C239.24030162 273.1951474 238.03505666 269.716751 236.8283844 266.23881531 C235.57933644 262.6358994 234.33546232 259.03119757 233.09082031 255.42675781 C230.85468144 248.95401501 228.61312329 242.4831649 226.36861229 236.01332092 C224.84248681 231.6140805 223.31854538 227.21409166 221.79638672 222.81347656 C220.02589111 217.69530443 218.25239804 212.5781863 216.47518921 207.46234131 C215.84138859 205.63758651 215.20826366 203.81259688 214.57583618 201.98736572 C213.71091977 199.49319219 212.84240732 197.00030354 211.97265625 194.5078125 C211.7247081 193.79106354 211.47675995 193.07431458 211.22129822 192.33584595 C210.59107193 190.53694602 209.93196769 188.74822709 209.26953125 186.9609375 C208.98698486 186.1580127 208.70443848 185.35508789 208.41333008 184.52783203 C207.35930417 182.7305307 207.35930417 182.7305307 205.05249023 182.41845703 C204.13282471 182.39380371 203.21315918 182.36915039 202.265625 182.34375 C200.70956543 182.27498657 200.70956543 182.27498657 199.12207031 182.20483398 C197.99510742 182.16559814 196.86814453 182.1263623 195.70703125 182.0859375 C175.06130916 180.90402822 155.75522889 175.00221462 136.10449219 168.94506836 C134.89567383 168.57260986 133.68685547 168.20015137 132.44140625 167.81640625 C131.36987305 167.48278076 130.29833984 167.14915527 129.19433594 166.80541992 C105.26209295 159.89543424 85.22395141 169.47165919 68.26953125 185.9609375 Z M-27.73046875 184.9609375 C-36.20289397 208.93560477 -44.5486271 232.95298911 -52.84106445 256.99047852 C-53.22442459 258.10170578 -53.60778473 259.21293304 -54.00276184 260.35783386 C-54.76363577 262.56422586 -55.52404913 264.77077675 -56.28398132 266.97749329 C-58.28062547 272.77268368 -60.28806516 278.56386889 -62.31054688 284.35009766 C-62.72894836 285.54991776 -63.14734985 286.74973785 -63.57843018 287.98591614 C-64.38344766 290.29319689 -65.19092743 292.59962038 -66.00115967 294.90507507 C-66.35945862 295.93324844 -66.71775757 296.96142181 -67.08691406 298.02075195 C-67.40509094 298.92888138 -67.72326782 299.8370108 -68.05108643 300.7726593 C-68.82930319 302.8973957 -68.82930319 302.8973957 -68.73046875 304.9609375 C-66.96896484 305.72664063 -66.96896484 305.72664063 -65.171875 306.5078125 C-48.95290022 313.75188064 -35.31104433 322.97154121 -22.5234375 335.28515625 C-20.23315302 337.47934488 -17.9084399 339.54911298 -15.48046875 341.5859375 C-12.72973124 343.96630282 -10.32948533 346.4844112 -7.94140625 349.2265625 C-1.46738085 356.47879218 5.48768254 363.24944718 12.39453125 370.0859375 C15.04598444 372.71052434 17.69390829 375.3386019 20.33984375 377.96875 C20.93169464 378.55230255 21.52354553 379.1358551 22.1333313 379.73709106 C25.11186276 382.69839313 27.96212666 385.716652 30.70605469 388.89746094 C34.35544703 393.11843186 38.24706593 397.04856033 42.21484375 400.96875 C42.94774628 401.69786591 43.6806488 402.42698181 44.4357605 403.17819214 C46.75291262 405.48324377 49.0732949 407.78499929 51.39453125 410.0859375 C54.46257109 413.12727109 57.52720624 416.17197736 60.58984375 419.21875 C61.63375778 420.25021652 61.63375778 420.25021652 62.69876099 421.30252075 C65.62459592 424.21366177 68.45967531 427.11347139 71.06201172 430.31982422 C73.2709441 432.96262785 74.8829934 434.71426878 78.35546875 435.33203125 C82.8123274 435.46132578 84.64899785 435.45219311 88.26953125 432.5859375 C91.39623006 428.48214532 91.94158166 426.16932815 91.26953125 420.9609375 C89.36539591 417.89279009 86.82842388 415.4906095 84.26953125 412.9609375 C83.23128919 411.92235626 82.19356588 410.88325629 81.15625 409.84375 C79.49607732 408.1814147 77.83312026 406.52313349 76.15356445 404.88037109 C73.30468633 402.07966136 70.60472684 399.22379072 68.01171875 396.18359375 C65.23680331 392.96773916 62.30710019 389.99564109 59.24609375 387.05078125 C58.37082031 386.20580078 57.49554688 385.36082031 56.59375 384.49023438 C54.7800991 382.74876206 52.95698781 381.01709377 51.125 379.29492188 C43.7887679 372.1603544 43.7887679 372.1603544 43.10546875 368.08984375 C43.23978159 365.52830604 43.40280238 363.36851769 44.26953125 360.9609375 C47.34703342 360.11319963 50.07724469 359.72888752 53.26953125 359.9609375 C55.25059509 361.23353577 55.25059509 361.23353577 57.12475586 363.00805664 C57.8130246 363.65066437 58.50129333 364.29327209 59.2104187 364.95535278 C59.88992584 365.61719574 60.56943298 366.2790387 61.26953125 366.9609375 C61.88031525 367.54648407 62.49109924 368.13203064 63.12039185 368.73532104 C64.960389 370.52098221 66.77589665 372.3285312 68.5859375 374.14453125 C69.2460936 374.80373062 69.90624969 375.46292999 70.58641052 376.1421051 C71.96988631 377.52490585 73.35212208 378.90894826 74.7331543 380.29418945 C76.82684794 382.39324093 78.92582999 384.4868969 81.02539062 386.58007812 C82.37922696 387.93457536 83.732753 389.28938281 85.0859375 390.64453125 C85.70279922 391.25936874 86.31966095 391.87420624 86.95521545 392.50767517 C90.68957661 396.26184357 94.23715488 400.13246408 97.6917572 404.14581299 C100.12617979 406.94645489 102.67239521 409.62421985 105.26953125 412.2734375 C105.99269531 413.04010742 105.99269531 413.04010742 106.73046875 413.82226562 C110.6683145 417.82782566 114.71877418 420.61771845 120.4921875 421.17578125 C125.25695299 420.45752573 128.52589378 419.18220695 132.26953125 415.9609375 C134.90026004 412.10253528 135.61714262 408.84594059 135.765625 404.18359375 C134.25249883 397.40431195 129.36976254 392.65747247 124.5625 387.99609375 C123.59707024 387.04058876 123.59707024 387.04058876 122.61213684 386.06578064 C120.56748216 384.04436542 118.51291494 382.03342554 116.45703125 380.0234375 C114.41360684 378.0153405 112.37244261 376.00502143 110.33406067 373.99180603 C109.07067414 372.74508898 107.80420218 371.50148717 106.53398132 370.26173401 C102.80512037 366.59484433 99.31341105 362.79742451 95.92939758 358.80931091 C94.18730596 356.86937408 92.33382745 355.13933866 90.39453125 353.3984375 C87.79264303 350.84321992 87.27357477 349.97584796 86.26953125 346.2734375 C86.26953125 343.55599307 86.35604272 341.49840563 87.26953125 338.9609375 C93.10539302 337.87289548 95.20930014 337.60671634 100.26953125 340.9609375 C101.63138798 342.15878461 102.95209315 343.40484211 104.23046875 344.69140625 C104.94976562 345.41263672 105.6690625 346.13386719 106.41015625 346.87695312 C107.1475 347.62654297 107.88484375 348.37613281 108.64453125 349.1484375 C109.73894531 350.24381836 109.73894531 350.24381836 110.85546875 351.36132812 C114.16869874 354.70118228 117.40250483 358.06585532 120.45703125 361.64453125 C125.38349871 367.35209288 130.73847273 372.6529885 136.05859375 377.99023438 C137.9043803 379.84583894 139.73922858 381.71185103 141.57421875 383.578125 C142.75585215 384.76628002 143.93812143 385.95380306 145.12109375 387.140625 C145.9353331 387.97338455 145.9353331 387.97338455 146.76602173 388.82296753 C150.34754536 392.38372467 153.37343132 394.71533185 158.48046875 395.1484375 C164.63269832 394.61539234 168.22984429 392.64148131 172.26953125 387.9609375 C174.60726849 384.35692593 174.7722199 380.71962714 174.07446289 376.54956055 C170.2248875 364.16950356 154.2742756 352.78636222 145.33203125 343.9609375 C142.7719118 341.42848591 140.21331046 338.89454454 137.65757751 336.35766602 C136.07665344 334.78895629 134.49306342 333.22292761 132.9065094 331.65991211 C131.8391581 330.60235718 131.8391581 330.60235718 130.75024414 329.5234375 C130.12453018 328.90597656 129.49881622 328.28851563 128.85414124 327.65234375 C126.23523642 324.85693541 125.29620308 323.33434315 125.01953125 319.4609375 C125.26953125 315.9609375 125.26953125 315.9609375 127.26953125 312.9609375 C131.32094196 311.79226133 133.43045767 311.55888141 137.26953125 313.3984375 C139.60716231 315.39516403 141.4029887 317.198392 143.36474609 319.51611328 C147.62085532 324.43073537 152.16191526 329.03339094 156.74609375 333.640625 C157.63436859 334.53459991 158.52264343 335.42857483 159.43783569 336.34963989 C161.30384398 338.22504005 163.17126784 340.09903269 165.04003906 341.97167969 C167.42843695 344.36560272 169.80738068 346.76870103 172.18435097 349.17396355 C174.46918696 351.48190757 176.76460272 353.77928602 179.05859375 356.078125 C179.90765289 356.93953094 180.75671204 357.80093689 181.63150024 358.68844604 C182.42937958 359.48332428 183.22725891 360.27820251 184.04931641 361.09716797 C184.74546051 361.7969577 185.44160461 362.49674744 186.15884399 363.21774292 C189.82691641 366.24716565 192.46028004 366.98662801 197.20703125 366.8359375 C202.30890079 366.00808697 205.73355272 363.70171317 209.14453125 359.8359375 C210.83711314 355.51045044 210.91336632 351.54178704 210.26953125 346.9609375 C207.57136631 341.33976054 202.71875651 337.24571501 198.26953125 332.9609375 C197.8308843 332.48307611 197.39223736 332.00521473 196.94029808 331.5128727 C194.98635513 329.697902 192.97201824 328.58024919 190.63491821 327.29794312 C185.12508851 324.04963388 180.88456998 320.11567702 176.42333984 315.56884766 C175.60257965 314.74867157 174.78181946 313.92849548 173.93618774 313.08346558 C171.25384382 310.39835822 168.5859097 307.69941207 165.91796875 305 C164.04983138 303.12439409 162.18091863 301.24959428 160.3109436 299.37582397 C155.91160058 294.96411061 151.52254317 290.54231312 147.13720286 286.11668527 C142.13902294 281.0736013 137.12930952 276.04204059 132.11865497 271.01135564 C121.82284772 260.67387893 111.54140213 250.3221984 101.26953125 239.9609375 C93.63640299 244.40959671 88.01112438 250.57845789 84.9921875 258.96875 C84.08099663 262.74157273 83.7038452 266.47815555 83.33203125 270.3359375 C81.91287158 284.86005028 75.75131596 295.59017781 64.70703125 305.1484375 C50.91484967 315.6304955 31.6132353 322.09086607 14.26953125 319.9609375 C12.2599157 318.40566982 11.40294807 317.22777114 10.26953125 314.9609375 C10.16619874 312.45587579 10.12271837 309.97842681 10.12426758 307.47290039 C10.12090897 306.70023834 10.11755035 305.92757629 10.11408997 305.13150024 C10.10455861 302.56551521 10.10263504 299.99959541 10.1015625 297.43359375 C10.09834886 295.64676385 10.09498471 293.85993421 10.09147644 292.07310486 C10.08547792 288.31785473 10.08363702 284.56262763 10.08422852 280.80737305 C10.08432959 276.01952821 10.07073729 271.23183351 10.05345631 266.44402409 C10.04227202 262.74716022 10.04031136 259.05033173 10.04083824 255.35345268 C10.03966549 253.59019903 10.03528372 251.82694424 10.02750587 250.06370735 C9.96304416 233.9251882 10.46841649 219.31094132 22.26953125 206.9609375 C24.21908405 205.19686013 26.19950791 203.47650875 28.19921875 201.76953125 C31.37286514 198.99708167 34.44226902 196.08859635 37.26953125 192.9609375 C37.26953125 192.6309375 37.26953125 192.3009375 37.26953125 191.9609375 C36.34954346 191.9515918 35.42955566 191.94224609 34.48168945 191.93261719 C17.54374246 191.71694144 1.07332058 191.4609888 -15.484375 187.48486328 C-19.54420335 186.53786419 -23.63919818 185.75901285 -27.73046875 184.9609375 Z " fill="#000000" transform="translate(165.73046875,60.0390625)"/>
<path d="M0 0 C2.58149256 1.69132271 2.94459927 2.78791445 3.73046875 5.79638672 C4.04684555 9.55680005 3.4299136 10.88066257 1.5 14.0703125 C0.94183594 15.02196289 0.38367188 15.97361328 -0.19140625 16.95410156 C-0.78824219 17.95924805 -1.38507813 18.96439453 -2 20 C-3.15395387 22.11799164 -4.29965388 24.24049892 -5.4375 26.3671875 C-6.6242804 28.5368521 -7.81178595 30.7061202 -9 32.875 C-9.59039062 33.97585937 -10.18078125 35.07671875 -10.7890625 36.2109375 C-16.49418025 46.56560054 -16.49418025 46.56560054 -22 50 C-25.5469368 50 -27.83111944 49.64099902 -30.9375 47.9375 C-32.77256546 44.59120416 -32.72016838 41.64144386 -32 38 C-29.81703955 33.14144571 -27.10956525 28.62269492 -24.375 24.0625 C-23.65342229 22.82706168 -22.93335762 21.59073834 -22.21484375 20.35351562 C-20.1846548 16.87608452 -18.1036192 13.43355902 -16 10 C-15.4318457 9.07171387 -14.86369141 8.14342773 -14.27832031 7.18701172 C-13.76624023 6.38150879 -13.25416016 5.57600586 -12.7265625 4.74609375 C-12.29166504 4.06087646 -11.85676758 3.37565918 -11.40869141 2.66967773 C-8.04042983 -1.32261705 -4.85040943 -1.34160261 0 0 Z " fill="#000000" transform="translate(323,18)"/>
<path d="M0 0 C5.84348739 1.80616883 8.04984823 6.8841094 10.96875 11.9921875 C11.93748047 13.68021484 11.93748047 13.68021484 12.92578125 15.40234375 C13.59645233 16.5806733 14.26702455 17.75905912 14.9375 18.9375 C15.60768403 20.10829561 16.27825391 21.27887044 16.94921875 22.44921875 C18.22580401 24.67878382 19.49884297 26.91038427 20.76782227 29.14428711 C21.75534454 30.87024905 22.75402317 32.59003862 23.77709961 34.29516602 C26.64485955 39.0815924 27.24640856 41.57989754 26.4375 47.0625 C24.375 49.625 24.375 49.625 21.4375 51.0625 C18 51.3125 18 51.3125 14.4375 50.0625 C8.3125285 43.93425486 4.40997275 35.31441375 0.1875 27.8125 C-0.53858294 26.53358179 -1.26514232 25.25493394 -1.9921875 23.9765625 C-3.86272415 20.67937999 -5.7294676 17.38074717 -7.5625 14.0625 C-7.9656543 13.33579102 -8.36880859 12.60908203 -8.78417969 11.86035156 C-10.04508774 8.9477647 -9.49153627 7.03541608 -8.5625 4.0625 C-5.71000522 0.79052069 -4.36831642 0.07663713 0 0 Z " fill="#000000" transform="translate(194.5625,16.9375)"/>
<path d="M0 0 C0.66 -0.0103125 1.32 -0.020625 2 -0.03125 C5.11118655 0.79515893 6.08273208 1.87847464 8 4.5 C8.6124497 7.92074962 8.56019816 11.3098833 8.53125 14.77734375 C8.5350769 15.78084366 8.53890381 16.78434357 8.54284668 17.81825256 C8.54556674 19.93898523 8.538199 22.05975138 8.52148438 24.18041992 C8.5000991 27.42247597 8.52127195 30.66231028 8.546875 33.90429688 C8.5442313 35.96615072 8.53910546 38.02800318 8.53125 40.08984375 C8.53934692 41.05768295 8.54744385 42.02552216 8.55578613 43.02268982 C8.49536373 47.37235486 8.40642611 49.83732161 6.09179688 53.61132812 C3.83278542 55.65097712 2.99498812 56.16194297 0 56.0625 C-0.66 56.06378906 -1.32 56.06507812 -2 56.06640625 C-5.1038539 55.18738513 -6.08050231 54.13832698 -8 51.5 C-8.61426158 47.99495682 -8.56014926 44.51962116 -8.53125 40.96875 C-8.5350769 39.94068237 -8.53890381 38.91261475 -8.54284668 37.85339355 C-8.54556674 35.68138652 -8.53819906 33.50934677 -8.52148438 31.33740234 C-8.50007695 28.01195271 -8.52128378 24.68866365 -8.546875 21.36328125 C-8.54423174 19.2525994 -8.53910681 17.14191889 -8.53125 15.03125 C-8.53934692 14.03637573 -8.54744385 13.04150146 -8.55578613 12.01647949 C-8.46227681 5.13592634 -8.46227681 5.13592634 -6.09179688 1.875 C-3.83522195 0.39168651 -2.67825507 -0.04184774 0 0 Z " fill="#000000" transform="translate(256,0.5)"/>
</svg>
