<?xml version="1.0" encoding="UTF-8"?>
<svg version="1.1" xmlns="http://www.w3.org/2000/svg" width="512" height="512">
<path d="M0 0 C20.71592497 18.7494669 34.98237061 44.47933702 37.85620117 72.5065918 C37.9914184 76.50770955 37.99588232 80.5035319 37.98120117 84.5065918 C37.98506836 85.56104492 37.98893555 86.61549805 37.99291992 87.7019043 C37.99098633 89.24491211 37.99098633 89.24491211 37.98901367 90.8190918 C37.98788574 91.74334961 37.98675781 92.66760742 37.9855957 93.61987305 C37.8358561 96.96047872 37.34612809 100.20041335 36.85620117 103.5065918 C38.62479744 103.51539116 38.62479744 103.51539116 40.42912292 103.52436829 C51.53838932 103.58157066 62.64745951 103.65431942 73.75652599 103.74230671 C79.46787799 103.78704227 85.17915813 103.82629152 90.890625 103.85302734 C96.4020737 103.87902831 101.91324633 103.91940832 107.42452431 103.96977806 C109.52762736 103.98646842 111.63077818 103.99796916 113.73393822 104.0042057 C116.67887721 104.01382305 119.62310646 104.04185448 122.56787109 104.07421875 C123.43821487 104.07278366 124.30855865 104.07134857 125.20527649 104.06987 C129.89377482 104.14278462 133.05765412 104.44400209 136.85620117 107.5065918 C138.62544911 111.04508768 138.38984851 114.64410698 137.85620117 118.5065918 C136.49263098 122.08170919 134.61603945 125.28256409 132.66870117 128.5690918 C131.55842658 130.52040313 130.44908361 132.47224478 129.34057617 134.42456055 C128.47529297 135.92768799 128.47529297 135.92768799 127.5925293 137.46118164 C124.78304492 142.38884026 122.10545539 147.38629788 119.41870117 152.3815918 C118.32678591 154.40010919 117.23433511 156.41833698 116.14135742 158.4362793 C115.59882324 159.43884766 115.05628906 160.44141602 114.49731445 161.47436523 C111.78497979 166.48584939 109.07048857 171.49616509 106.35620117 176.5065918 C105.27285735 178.50658612 104.18952402 180.50658612 103.10620117 182.5065918 C92.27286784 202.5065918 81.43953451 222.5065918 70.60620117 242.5065918 C70.06930664 243.49804199 69.53241211 244.48949219 68.97924805 245.51098633 C67.90330708 247.49681599 66.82649399 249.4821734 65.7487793 251.46704102 C62.91975005 256.68017036 60.10947803 261.90235187 57.32495117 267.1394043 C56.74422852 268.22608398 56.16350586 269.31276367 55.56518555 270.43237305 C54.45668037 272.50749475 53.35348438 274.58546468 52.2565918 276.66674805 C45.27494726 289.7003431 45.27494726 289.7003431 39.85620117 291.5065918 C38.46992967 291.59821463 37.07967985 291.63567099 35.69038582 291.63801956 C34.83754765 291.64186071 33.98470948 291.64570185 33.10602772 291.6496594 C32.16878546 291.64879291 31.2315432 291.64792643 30.26589966 291.64703369 C28.77276633 291.65149037 28.77276633 291.65149037 27.24946868 291.65603709 C23.89848178 291.6647409 20.54753053 291.66623376 17.1965332 291.66772461 C14.80029219 291.67235154 12.40405191 291.67737603 10.0078125 291.68276978 C3.48720207 291.69590661 -3.03340093 291.70237761 -9.55402136 291.70678043 C-13.62473144 291.70954261 -17.69543914 291.71377989 -21.76614761 291.71828461 C-33.03479043 291.73047666 -44.30343134 291.74077647 -55.57208061 291.7441597 C-56.65393157 291.74448905 -56.65393157 291.74448905 -57.7576381 291.74482505 C-58.84208667 291.74515247 -58.84208667 291.74515247 -59.94844329 291.7454865 C-61.41346415 291.74592997 -62.87848501 291.74637653 -64.34350586 291.74682617 C-65.07020781 291.7470476 -65.79690975 291.74726903 -66.54563297 291.74749717 C-78.3241042 291.75144625 -90.10251359 291.76890389 -101.88096093 291.79218569 C-113.97108519 291.8158909 -126.06117841 291.82836115 -138.1513263 291.82952762 C-144.94059817 291.83044479 -151.72978946 291.83620768 -158.51903915 291.85434723 C-164.90312043 291.87134409 -171.28708945 291.87300707 -177.67118835 291.86420822 C-180.01697829 291.86343527 -182.36277631 291.8678143 -184.70854568 291.87766647 C-187.90572493 291.89030925 -191.10235518 291.88455078 -194.29953003 291.87408447 C-195.23231085 291.88214088 -196.16509166 291.89019728 -197.12613857 291.89849782 C-201.91366797 291.86172964 -205.33010553 291.74431311 -209.14379883 288.5065918 C-210.48581071 285.86431372 -211.51715557 283.45877685 -212.49145508 280.6862793 C-212.78472183 279.89252899 -213.07798859 279.09877869 -213.38014221 278.28097534 C-214.3247434 275.6972165 -215.23876163 273.10445816 -216.14379883 270.5065918 C-216.44131042 269.6547229 -216.73882202 268.802854 -217.04534912 267.9251709 C-218.93141125 262.49100643 -220.76804167 257.04087353 -222.59210205 251.58563232 C-229.64774401 230.51535311 -237.11092567 209.61503845 -244.76367188 188.75585938 C-247.75447071 180.59388166 -250.70926025 172.41909605 -253.65551758 164.2409668 C-253.89461349 163.57735767 -254.13370941 162.91374855 -254.38005066 162.23003006 C-256.53037701 156.26116111 -258.67916125 150.29173743 -260.82696533 144.32196045 C-262.15711511 140.6254314 -263.48821936 136.92924736 -264.81958008 133.2331543 C-265.24928101 132.03870697 -265.67898193 130.84425964 -266.1217041 129.61361694 C-268.47179288 123.09392221 -270.84859446 116.5854003 -273.25854492 110.08764648 C-273.77397362 108.69478541 -274.28937012 107.30191242 -274.80473328 105.9090271 C-275.78984496 103.24714427 -276.78135771 100.58776378 -277.77644348 97.92959595 C-278.21759995 96.73861298 -278.65875641 95.54763 -279.11328125 94.32055664 C-279.50609787 93.26798676 -279.89891449 92.21541687 -280.30363464 91.13095093 C-281.14379883 88.5065918 -281.14379883 88.5065918 -281.14379883 85.5065918 C-295.33379883 85.5065918 -309.52379883 85.5065918 -324.14379883 85.5065918 C-324.47379883 88.4765918 -324.80379883 91.4465918 -325.14379883 94.5065918 C-327.11126834 97.31726252 -328.37879353 98.23197451 -331.58129883 99.3815918 C-335.40246786 99.56799029 -337.91026064 98.47580037 -340.89379883 96.1315918 C-344.6283888 91.27662483 -343.32980544 83.85902708 -343.32910156 78.08935547 C-343.33128791 76.07913025 -343.34946562 74.06945444 -343.3684082 72.05932617 C-343.3703418 70.78508789 -343.37227539 69.51084961 -343.37426758 68.19799805 C-343.37837646 67.03469971 -343.38248535 65.87140137 -343.38671875 64.67285156 C-343.08897874 60.79205736 -342.15404103 57.92093089 -339.89379883 54.7565918 C-337.28933468 52.89626026 -335.33058743 52.6315639 -332.14379883 52.5065918 C-328.58987513 53.73679616 -326.70888182 54.55622495 -324.76879883 57.8190918 C-324.0773138 60.7924774 -324.10182435 63.46344236 -324.14379883 66.5065918 C-323.53071869 66.49992996 -322.91763855 66.49326813 -322.28598022 66.48640442 C-315.89440159 66.41993875 -309.50292144 66.37474449 -303.11108398 66.34179688 C-300.72692882 66.3267278 -298.3428013 66.30626889 -295.95874023 66.28027344 C-292.52816946 66.24380843 -289.09796582 66.22684627 -285.66723633 66.21362305 C-284.07315445 66.19039726 -284.07315445 66.19039726 -282.4468689 66.16670227 C-276.96646945 66.16546118 -272.79999678 66.25106588 -268.14379883 69.5065918 C-266.45629883 72.4831543 -266.45629883 72.4831543 -265.14379883 76.1315918 C-264.9045166 76.78095703 -264.66523438 77.43032227 -264.41870117 78.09936523 C-263.90927694 79.49291691 -263.41006508 80.8902365 -262.92016602 82.29077148 C-262.11359783 84.59278812 -261.27584405 86.88174189 -260.43286133 89.1706543 C-259.87661134 90.69873226 -259.32188773 92.22736684 -258.76879883 93.7565918 C-258.3743457 94.84641357 -258.3743457 94.84641357 -257.97192383 95.95825195 C-256.92350418 98.9365247 -256.14379883 101.3247057 -256.14379883 104.5065918 C-233.70379883 104.5065918 -211.26379883 104.5065918 -188.14379883 104.5065918 C-189.13379883 96.0915918 -189.13379883 96.0915918 -190.14379883 87.5065918 C-190.65977723 56.99015481 -179.11593989 29.16404598 -158.54223633 6.9753418 C-116.24651696 -36.56031723 -46.09353071 -40.54576552 0 0 Z M-144.89379883 18.8190918 C-164.53244323 39.35529765 -171.62810577 64.21730844 -171.35864258 92.04956055 C-170.87134321 113.10028808 -161.69484705 132.6631821 -148.14379883 148.5065918 C-147.38067383 149.5172168 -146.61754883 150.5278418 -145.83129883 151.5690918 C-130.16961099 168.68768083 -106.32936845 180.23910041 -83.07080078 181.63061523 C-56.7778736 182.57412043 -31.8521234 175.65641047 -12.20629883 157.5065918 C-10.15175921 155.53869494 -8.14113314 153.53232759 -6.14379883 151.5065918 C-5.39485352 150.76795898 -4.6459082 150.02932617 -3.87426758 149.26831055 C13.06279092 131.5294978 20.4088749 106.95690877 20.20996094 82.87231445 C19.61294002 60.82290864 11.2486076 40.12606305 -3.14379883 23.5065918 C-3.75868164 22.74733398 -4.37356445 21.98807617 -5.00708008 21.20581055 C-20.05227935 3.17026111 -42.93571415 -7.08742658 -65.91723633 -9.96606445 C-95.9643156 -12.53393861 -123.12109365 -1.71268199 -144.89379883 18.8190918 Z M-249.14379883 122.5065918 C-244.57679829 141.40327381 -244.57679829 141.40327381 -235.14379883 160.5065918 C-232.87387996 160.60099158 -230.60097916 160.62401406 -228.32910156 160.62011719 C-227.61694489 160.62026321 -226.90478821 160.62040924 -226.17105103 160.62055969 C-223.8064677 160.6198605 -221.44196221 160.61206786 -219.07739258 160.60424805 C-217.4421442 160.60238389 -215.80689526 160.60095998 -214.17164612 160.59996033 C-209.85945098 160.59613497 -205.5472893 160.58630455 -201.23510742 160.57525635 C-196.83813937 160.5650426 -192.44116594 160.56046279 -188.04418945 160.55541992 C-179.41071052 160.54468229 -170.77725883 160.52760567 -162.14379883 160.5065918 C-163.59761761 157.5152672 -165.21151458 154.98351993 -167.20629883 152.3190918 C-170.50392496 147.67337951 -173.23995972 142.84847906 -175.89379883 137.8190918 C-176.27028564 137.10664307 -176.64677246 136.39419434 -177.03466797 135.66015625 C-179.28989251 131.32341837 -181.20535419 127.02962929 -183.14379883 122.5065918 C-204.92379883 122.5065918 -226.70379883 122.5065918 -249.14379883 122.5065918 Z M31.85620117 122.5065918 C28.4589561 129.26707092 28.4589561 129.26707092 25.18823242 136.08862305 C21.51145458 143.90532042 17.22629109 150.3759972 11.79760742 157.05737305 C9.75267067 159.11631323 9.75267067 159.11631323 9.85620117 160.5065918 C37.57620117 160.5065918 65.29620117 160.5065918 93.85620117 160.5065918 C104.0486251 141.60647512 104.0486251 141.60647512 113.85620117 122.5065918 C86.79620117 122.5065918 59.73620117 122.5065918 31.85620117 122.5065918 Z M-229.14379883 178.5065918 C-224.57679829 197.40327381 -224.57679829 197.40327381 -215.14379883 216.5065918 C-213.42514474 216.60018369 -211.70264139 216.62403791 -209.98144531 216.62011719 C-208.32984657 216.62000389 -208.32984657 216.62000389 -206.6448822 216.61988831 C-205.44698563 216.61472702 -204.24908905 216.60956573 -203.01489258 216.60424805 C-201.79552505 216.6028331 -200.57615753 216.60141815 -199.31983948 216.59996033 C-195.40696813 216.59434147 -191.49415302 216.58178576 -187.58129883 216.5690918 C-184.93611736 216.56407923 -182.290935 216.5595159 -179.64575195 216.55541992 C-173.14506156 216.54521476 -166.6444935 216.525643 -160.14379883 216.5065918 C-160.14379883 203.9665918 -160.14379883 191.4265918 -160.14379883 178.5065918 C-182.91379883 178.5065918 -205.68379883 178.5065918 -229.14379883 178.5065918 Z M-142.14379883 178.5065918 C-142.14379883 191.0465918 -142.14379883 203.5865918 -142.14379883 216.5065918 C-123.33379883 216.5065918 -104.52379883 216.5065918 -85.14379883 216.5065918 C-85.14379883 210.5665918 -85.14379883 204.6265918 -85.14379883 198.5065918 C-86.75125977 198.22686523 -88.3587207 197.94713867 -90.01489258 197.65893555 C-107.20757455 194.53299337 -121.95089154 190.12781276 -136.82348633 180.8894043 C-139.16945858 179.37913622 -139.16945858 179.37913622 -142.14379883 178.5065918 Z M-16.83129883 182.1315918 C-32.08882549 191.78912201 -49.37724764 196.11110175 -67.14379883 198.5065918 C-67.14379883 204.4465918 -67.14379883 210.3865918 -67.14379883 216.5065918 C-48.00379883 216.5065918 -28.86379883 216.5065918 -9.14379883 216.5065918 C-9.14379883 203.9665918 -9.14379883 191.4265918 -9.14379883 178.5065918 C-12.30120532 178.5065918 -14.22069847 180.41688012 -16.83129883 182.1315918 Z M8.85620117 178.5065918 C8.85620117 191.0465918 8.85620117 203.5865918 8.85620117 216.5065918 C27.00620117 216.5065918 45.15620117 216.5065918 63.85620117 216.5065918 C69.79620117 205.1215918 69.79620117 205.1215918 75.85620117 193.5065918 C78.49620117 188.5565918 81.13620117 183.6065918 83.85620117 178.5065918 C59.10620117 178.5065918 34.35620117 178.5065918 8.85620117 178.5065918 Z M-209.14379883 234.5065918 C-204.73454647 247.73434888 -200.28852769 260.59227242 -195.14379883 273.5065918 C-183.59379883 273.5065918 -172.04379883 273.5065918 -160.14379883 273.5065918 C-160.14379883 260.6365918 -160.14379883 247.7665918 -160.14379883 234.5065918 C-176.31379883 234.5065918 -192.48379883 234.5065918 -209.14379883 234.5065918 Z M-142.14379883 234.5065918 C-142.14379883 247.3765918 -142.14379883 260.2465918 -142.14379883 273.5065918 C-123.33379883 273.5065918 -104.52379883 273.5065918 -85.14379883 273.5065918 C-85.14379883 260.6365918 -85.14379883 247.7665918 -85.14379883 234.5065918 C-103.95379883 234.5065918 -122.76379883 234.5065918 -142.14379883 234.5065918 Z M-67.14379883 234.5065918 C-67.14379883 247.3765918 -67.14379883 260.2465918 -67.14379883 273.5065918 C-48.00379883 273.5065918 -28.86379883 273.5065918 -9.14379883 273.5065918 C-9.14379883 260.6365918 -9.14379883 247.7665918 -9.14379883 234.5065918 C-28.28379883 234.5065918 -47.42379883 234.5065918 -67.14379883 234.5065918 Z M8.85620117 234.5065918 C8.85620117 247.3765918 8.85620117 260.2465918 8.85620117 273.5065918 C16.77620117 273.5065918 24.69620117 273.5065918 32.85620117 273.5065918 C34.04858398 271.25459961 35.2409668 269.00260742 36.46948242 266.68237305 C37.63085864 264.49120051 38.79270182 262.30027618 39.95458984 260.109375 C40.75911471 258.59173017 41.56315722 257.07382952 42.36669922 255.55566406 C43.52467831 253.36805156 44.68441395 251.18137814 45.84448242 248.99487305 C46.20085281 248.32071854 46.55722321 247.64656403 46.9243927 246.95198059 C48.41800609 244.14025841 49.93709458 241.37522884 51.60693359 238.66357422 C53.02326216 236.6335843 53.02326216 236.6335843 52.85620117 234.5065918 C38.33620117 234.5065918 23.81620117 234.5065918 8.85620117 234.5065918 Z " fill="#000000" transform="translate(358.143798828125,67.493408203125)"/>
<path d="M0 0 C11.74891399 8.6621714 18.9850155 20.39056178 21.37890625 34.75390625 C22.39437582 50.3960433 19.13930255 63.72700513 9.12890625 76.00390625 C-0.45379428 86.28161582 -12.72894907 91.62938644 -26.62109375 92.75390625 C-39.46504872 92.89368327 -50.4143065 89.53147814 -60.62109375 81.75390625 C-61.65234375 81.01140625 -62.68359375 80.26890625 -63.74609375 79.50390625 C-74.39335258 69.31957172 -79.56900868 56.41475437 -79.93359375 41.87890625 C-79.66818081 26.45177934 -73.56528352 14.42079391 -62.62109375 3.75390625 C-45.35862007 -12.15123583 -19.16642516 -12.27512622 0 0 Z M-53.93359375 20.50390625 C-59.62753022 28.09582154 -62.55022755 36.21369308 -61.62109375 45.75390625 C-59.30009524 56.79571534 -53.62521162 64.32529396 -44.37109375 70.6875 C-37.15029144 75.08767641 -29.07302832 75.32068568 -21.07421875 73.48046875 C-11.25526538 70.5723074 -4.87887673 65.13971387 0.12109375 56.3046875 C4.34495094 47.738915 4.3521874 39.14680023 1.41796875 30.20703125 C-2.14045613 21.80593792 -9.02983463 15.1812527 -17.24609375 11.37890625 C-30.50368473 6.61822585 -44.47865213 10.10347047 -53.93359375 20.50390625 Z " fill="#000000" transform="translate(396.62109375,380.24609375)"/>
<path d="M0 0 C12.65310308 8.19575995 19.90969846 19.69308461 23.4375 34.125 C24.96763649 49.73239219 21.93000659 64.72148366 11.875 77.1875 C1.78270836 87.9595833 -11.278021 93.37301274 -25.8515625 94.2734375 C-38.89423523 94.42335328 -51.02554187 90.09417839 -60.93359375 81.6015625 C-71.46513466 71.19433995 -77.2960035 58.47724616 -77.5 43.6875 C-77.35084414 29.5027779 -72.91955282 17.98570914 -63.25 7.5625 C-45.91947354 -8.98673224 -20.78925486 -11.44684431 0 0 Z M-51.25 22.3125 C-56.97287421 29.4978865 -59.78781644 36.36667393 -59.5625 45.6328125 C-58.49647168 54.77400535 -54.26064605 63.27339753 -47.07421875 69.06640625 C-39.14987569 74.59346906 -30.89657201 77.29687521 -21.25 75.625 C-11.29781132 73.34715651 -4.10260904 68.43070594 1.390625 59.80859375 C6.09788752 51.16508584 6.92543997 42.8344951 4.3125 33.4375 C1.17808644 24.73812762 -4.39699866 18.4602346 -12.625 14.25 C-26.70940221 7.96790949 -40.8866175 10.99283971 -51.25 22.3125 Z " fill="#000000" transform="translate(215.25,378.6875)"/>
<path d="M0 0 C6.4500712 2.79671056 10.37605672 12.01861307 13.8125 17.7421875 C14.40998047 18.69738281 15.00746094 19.65257813 15.62304688 20.63671875 C19.04360642 26.33634825 20.98590949 30.18989143 20 36.8671875 C17.9375 39.8671875 17.9375 39.8671875 15 41.8671875 C10.75499289 42.54942079 8.8160541 42.39308903 5.1875 40.0546875 C3 37.8671875 3 37.8671875 1 34.8671875 C-2.33645626 44.87655627 -0.14684453 56.74668047 3.99609375 66.12109375 C9.99819936 78.06299937 19.40862284 85.90614678 31.6484375 90.9609375 C43.4956635 94.80328107 56.75084438 94.14772997 68 88.8671875 C69.7879861 87.81240434 71.55971309 86.72948235 73.3125 85.6171875 C77.39142635 83.04171157 80.08135497 81.9027473 85 82.8671875 C87.875 84.4296875 87.875 84.4296875 90 86.8671875 C91.06717843 90.53561337 91.36474142 92.7990162 90.125 96.4296875 C82.26425164 105.44642827 68.29543083 111.03247314 56.54223633 112.08789062 C34.15203693 113.07695699 17.24538722 108.03945721 0.1328125 93.25390625 C-12.93313695 81.08805554 -18.82552112 63.87912619 -19.9140625 46.5 C-20.03851797 41.2389278 -19.62150448 36.08782512 -19 30.8671875 C-19.7528125 31.35316406 -20.505625 31.83914062 -21.28125 32.33984375 C-24.81828421 34.32688452 -26.99493479 34.36782065 -31 33.8671875 C-33.875 32.3046875 -33.875 32.3046875 -36 29.8671875 C-37.0800572 26.15449089 -37.50005148 23.98077733 -35.8984375 20.4140625 C-33.5814934 17.3057342 -30.8952389 15.5198576 -27.625 13.5546875 C-27.00794189 13.17513916 -26.39088379 12.79559082 -25.75512695 12.40454102 C-24.47281202 11.61586421 -23.18836119 10.83065019 -21.90185547 10.04882812 C-20.07003965 8.91070379 -18.28538426 7.72284845 -16.50390625 6.5078125 C-11.07387476 2.9005831 -6.6425821 -0.02594759 0 0 Z " fill="#000000" transform="translate(233,108.1328125)"/>
<path d="M0 0 C12.72898032 10.18802417 22.17261984 24.43396065 25.14941406 40.63818359 C25.49371362 43.968652 25.65108996 47.29301727 25.77441406 50.63818359 C25.81308594 51.50830078 25.85175781 52.37841797 25.89160156 53.27490234 C25.98482293 55.39568845 26.06815542 57.51690545 26.14941406 59.63818359 C27.07625 58.99751953 28.00308594 58.35685547 28.95800781 57.69677734 C32.29206564 55.54616721 34.20568052 54.72209282 38.14941406 54.63818359 C41.02813984 56.01212089 42.89930844 57.38807797 45.14941406 59.63818359 C45.95300282 66.52608726 45.95300282 66.52608726 43.01269531 70.59521484 C40.28886123 73.65862249 37.19464483 76.15402892 33.89941406 78.57568359 C32.74661813 79.43705793 31.59427633 80.29904036 30.44238281 81.16162109 C29.88212402 81.57895508 29.32186523 81.99628906 28.74462891 82.42626953 C26.51442118 84.12059937 24.37201843 85.91832244 22.21191406 87.70068359 C18.890363 90.26458159 16.49740418 91.8314276 12.14941406 91.63818359 C5.28738682 89.44152876 1.96665761 83.70270911 -2.10058594 78.13818359 C-2.81988281 77.17525391 -3.53917969 76.21232422 -4.28027344 75.22021484 C-12.99137017 63.52385462 -12.99137017 63.52385462 -11.85058594 55.63818359 C-9.83672718 52.53993935 -8.46710782 51.83922334 -4.97558594 50.70068359 C-1.10332507 50.62323838 0.9041032 51.57298577 4.14941406 53.63818359 C5.13941406 55.12318359 5.13941406 55.12318359 6.14941406 56.63818359 C6.98280628 42.07696958 3.05186118 30.73043736 -6.58886719 19.63818359 C-14.49900615 12.04987042 -25.94954858 6.64615623 -36.85058594 5.63818359 C-37.56214844 5.56857422 -38.27371094 5.49896484 -39.00683594 5.42724609 C-47.18207165 5.04218064 -55.99899841 6.8628714 -63.16308594 10.82568359 C-67.28434299 13.082355 -70.17840259 13.26114137 -74.85058594 12.63818359 C-77.28178216 10.76803265 -78.49127766 9.35680014 -79.85058594 6.63818359 C-80.25349583 3.01199457 -80.23241391 1.21679288 -78.19824219 -1.86572266 C-59.15192345 -22.11630114 -20.16118462 -14.83629127 0 0 Z " fill="#000000" transform="translate(322.8505859375,99.36181640625)"/>
<path d="M0 0 C4.16088642 1.75681871 6.42889949 4.32699927 9 8 C10.35867399 12.07602197 10.83421814 15.78750841 9.28125 19.90625 C7.18585483 23.89426016 5.12806869 26.2308277 1 28 C-3.89506696 29.38338849 -7.28924355 28.88430258 -12 27 C-16.4642226 23.23021202 -18.77364668 20.44461589 -19.3125 14.625 C-18.85551955 9.32402683 -17.39035103 6.25470703 -13.4375 2.6875 C-8.94246845 -0.42444492 -5.37518887 -0.51325588 0 0 Z " fill="#000000" transform="translate(372,408)"/>
<path d="M0 0 C3.85987396 2.00141613 6.99446399 4.0944825 9 8 C10.32118526 12.83477217 10.47594285 16.76483391 8.375 21.375 C5.82146401 25.77372809 3.05231321 27.34699125 -1.75 28.875 C-6.2791483 29.04919801 -9.95010724 28.01724696 -14 26 C-17.73387879 22.26612121 -18.880768 19.45463045 -19.3125 14.1875 C-19.25523055 8.99507007 -16.74100551 6.01956639 -13.4375 2.1875 C-9.71889711 -0.88438935 -4.54583447 -0.56725798 0 0 Z " fill="#000000" transform="translate(193,408)"/>
</svg>
